<?xml version="1.0" encoding="utf-8"?>
<!-- Generator: Adobe Illustrator 28.2.0, SVG Export Plug-In . SVG Version: 6.00 Build 0)  -->
<svg version="1.1" id="Capa_1" xmlns="http://www.w3.org/2000/svg" xmlns:xlink="http://www.w3.org/1999/xlink" x="0px" y="0px"
	 viewBox="0 0 512 512" style="enable-background:new 0 0 512 512;" xml:space="preserve">
<style type="text/css">
	.st0{fill:#D6D6D6;}
	.st1{fill:#E88A01;}
</style>
<rect x="199.7" y="199.7" class="st0" width="112.6" height="112.6"/>
<path class="st1" d="M485.9,236.4c8.8,0,15.9-7.1,15.9-15.9s-7.1-15.9-15.9-15.9h-64.2v-39.2h64.2c8.8,0,15.9-7.1,15.9-15.9
	c0-8.8-7.1-15.9-15.9-15.9h-64.2v-0.8c0-23.4-19-42.4-42.4-42.4h-0.9V26.1c0-8.8-7.1-15.9-15.9-15.9s-15.9,7.1-15.9,15.9v64.3h-39.2
	V26.1c0-8.8-7.1-15.9-15.9-15.9s-15.9,7.1-15.9,15.9v64.3h-39.2V26.1c0-8.8-7.1-15.9-15.9-15.9c-8.8,0-15.9,7.1-15.9,15.9v64.3
	h-39.2V26.1c0-8.8-7.1-15.9-15.9-15.9c-8.8,0-15.9,7.1-15.9,15.9v64.3h-0.8c-23.4,0-42.4,19-42.4,42.4v0.8H26.1
	c-8.8,0-15.9,7.1-15.9,15.9c0,8.8,7.1,15.9,15.9,15.9h64.3v39.2H26.1c-8.8,0-15.9,7.1-15.9,15.9s7.1,15.9,15.9,15.9h64.3v39.2H26.1
	c-8.8,0-15.9,7.1-15.9,15.9s7.1,15.9,15.9,15.9h64.3v39.2H26.1c-8.8,0-15.9,7.1-15.9,15.9s7.1,15.9,15.9,15.9h64.3v0.9
	c0,23.4,19,42.4,42.4,42.4h0.8v64.2c0,8.8,7.1,15.9,15.9,15.9c8.8,0,15.9-7.1,15.9-15.9v-64.2h39.2v64.2c0,8.8,7.1,15.9,15.9,15.9
	c8.8,0,15.9-7.1,15.9-15.9v-64.2h39.2v64.2c0,8.8,7.1,15.9,15.9,15.9s15.9-7.1,15.9-15.9v-64.2h39.2v64.2c0,8.8,7.1,15.9,15.9,15.9
	s15.9-7.1,15.9-15.9v-64.2h0.9c23.4,0,42.4-19,42.4-42.4v-0.9h64.2c8.8,0,15.9-7.1,15.9-15.9s-7.1-15.9-15.9-15.9h-64.2v-39.2h64.2
	c8.8,0,15.9-7.1,15.9-15.9s-7.1-15.9-15.9-15.9h-64.2v-39.2L485.9,236.4L485.9,236.4z M341,326.7c0,7.9-6.4,14.3-14.3,14.3H185.4
	c-7.9,0-14.3-6.4-14.3-14.3V185.4c0-7.9,6.4-14.3,14.3-14.3h141.3c7.9,0,14.3,6.4,14.3,14.3V326.7z"/>
</svg>
