<?xml version="1.0" encoding="utf-8"?>
<!-- Generator: Adobe Illustrator 28.2.0, SVG Export Plug-In . SVG Version: 6.00 Build 0)  -->
<svg version="1.1" id="Capa_1" xmlns="http://www.w3.org/2000/svg" xmlns:xlink="http://www.w3.org/1999/xlink" x="0px" y="0px"
	 viewBox="0 0 512 512" style="enable-background:new 0 0 512 512;" xml:space="preserve">
<style type="text/css">
	.st0{fill:#45BED9;}
	.st1{fill:#A1C0D2;}
</style>
<g>
	<path class="st0" d="M476.2,126.6L373,23.4c-7.9-7.9-18.6-12.3-29.7-12.3h-47.8v86.4c0,8.9-7.2,16.1-16.1,16.1H107.1
		c-8.9,0-16.1-7.2-16.1-16.1V11.1H65.5c-23.2,0-42,18.8-42,42V459c0,23.2,18.8,42,42,42h381.1c23.2,0,42-18.8,42-42V156.2
		C488.5,145.1,484.1,134.4,476.2,126.6z M421,429.4c0,8.9-7.2,16.1-16.1,16.1H107.1c-8.9,0-16.1-7.2-16.1-16.1v-230
		c0-8.9,7.2-16.1,16.1-16.1h297.8c8.9,0,16.1,7.2,16.1,16.1V429.4z"/>
	<path class="st1" d="M192.6,76.6h62.5c3.6,0,6.5-2.9,6.5-6.5V11.2H186v58.9C186.1,73.7,189,76.6,192.6,76.6z"/>
	<path class="st1" d="M361.7,226.6H150.3c-9.4,0-17,7.6-17,17s7.6,17,17,17h211.5c9.4,0,17-7.6,17-17
		C378.8,234.2,371.2,226.6,361.7,226.6z"/>
	<path class="st1" d="M361.7,297.4H150.3c-9.4,0-17,7.6-17,17s7.6,17,17,17h211.5c9.4,0,17-7.6,17-17S371.2,297.4,361.7,297.4z"/>
	<path class="st1" d="M361.7,368.1H150.3c-9.4,0-17,7.6-17,17s7.6,17,17,17h211.5c9.4,0,17-7.6,17-17S371.2,368.1,361.7,368.1z"/>
</g>
</svg>
