<?xml version="1.0" encoding="utf-8"?>
<!-- Generator: Adobe Illustrator 28.2.0, SVG Export Plug-In . SVG Version: 6.00 Build 0)  -->
<svg version="1.1" id="Capa_1" xmlns="http://www.w3.org/2000/svg" xmlns:xlink="http://www.w3.org/1999/xlink" x="0px" y="0px"
	 viewBox="0 0 512 512" style="enable-background:new 0 0 512 512;" xml:space="preserve">
<style type="text/css">
	.st0{fill:#EE762A;}
	.st1{fill:#D6D6D6;}
</style>
<g>
	<g>
		<path class="st0" d="M19.3,159.4h20.9v35.5H19.3v56.7h473.5v-56.7h-20.9v-35.5h20.9v-56.7H19.3L19.3,159.4z M424.5,148.7v57
			l-39.4,0.1v-57L424.5,148.7z M350.1,148.7v57h-39.3v-57H350.1z M275.7,148.7v57h-39.3v-57H275.7z M201.3,148.7v57H162v-57H201.3z
			 M126.9,148.7l0.1,56.9l-39.4,0.1v-57L126.9,148.7z"/>
		<polygon class="st1" points="52.1,91.7 73.5,91.7 73.5,41.7 100.4,41.7 100.4,72.1 121.8,72.1 121.8,41.7 148.8,41.7 148.8,72.1 
			170.1,72.1 170.1,41.7 197,41.7 197,72.1 218.3,72.1 218.3,41.7 245.4,41.7 245.4,72.1 266.7,72.1 266.7,41.7 293.6,41.7 
			293.6,72.1 314.9,72.1 314.9,41.7 341.9,41.7 341.9,72.1 363.3,72.1 363.3,41.7 390.2,41.7 390.2,72.1 411.5,72.1 411.5,41.7 
			438.5,41.7 438.5,91.7 459.9,91.7 459.9,20.3 52.1,20.2 		"/>
	</g>
	<g>
		<path class="st0" d="M492.7,352.6h-20.9v-35.5h20.9v-56.7H19.2v56.7h20.9v35.5H19.2v56.7h473.5V352.6z M87.5,363.3v-57l39.4-0.1
			v57L87.5,363.3z M161.9,363.3v-57h39.3v57H161.9z M236.3,363.3v-57h39.3v57H236.3z M310.7,363.3v-57H350v57H310.7z M385.1,363.3
			l-0.1-56.9l39.4-0.1v57H385.1z"/>
		<polygon class="st1" points="459.9,420.3 438.5,420.3 438.5,470.3 411.6,470.3 411.6,439.9 390.2,439.9 390.2,470.3 363.2,470.3 
			363.2,439.9 341.9,439.9 341.9,470.3 315,470.3 315,439.9 293.7,439.9 293.7,470.3 266.6,470.3 266.6,439.9 245.3,439.9 
			245.3,470.3 218.4,470.3 218.4,439.9 197.1,439.9 197.1,470.3 170.1,470.3 170.1,439.9 148.7,439.9 148.7,470.3 121.8,470.3 
			121.8,439.9 100.5,439.9 100.5,470.3 73.5,470.3 73.5,420.3 52.1,420.3 52.1,491.7 459.9,491.8 		"/>
	</g>
</g>
</svg>
