<?xml version="1.0" encoding="utf-8"?>
<!-- Generator: Adobe Illustrator 28.3.0, SVG Export Plug-In . SVG Version: 6.00 Build 0)  -->
<svg version="1.1" id="Layer_1" xmlns="http://www.w3.org/2000/svg" xmlns:xlink="http://www.w3.org/1999/xlink" x="0px" y="0px"
	 viewBox="0 0 62 62" style="enable-background:new 0 0 62 62;" xml:space="preserve">
<style type="text/css">
	.st0{fill:#E2E5E7;}
	.st1{fill:#B0B7BD;}
	.st2{fill:#CAD1D8;}
	.st3{fill:#F15642;}
	.st4{fill:#FFFFFF;}
</style>
<path class="st0" d="M15.5,0c-2.1,0-3.9,1.7-3.9,3.9v54.2c0,2.1,1.7,3.9,3.9,3.9h38.8c2.1,0,3.9-1.7,3.9-3.9V15.5L42.6,0H15.5z"/>
<path class="st1" d="M46.5,15.5h11.6L42.6,0v11.6C42.6,13.8,44.4,15.5,46.5,15.5z"/>
<path class="st2" d="M58.1,27.1L46.5,15.5h11.6V27.1z"/>
<path class="st3" d="M50.4,50.4c0,1.1-0.9,1.9-1.9,1.9H5.8c-1.1,0-1.9-0.9-1.9-1.9V31c0-1.1,0.9-1.9,1.9-1.9h42.6
	c1.1,0,1.9,0.9,1.9,1.9V50.4z"/>
<path class="st2" d="M48.4,52.3H11.6v1.9h36.8c1.1,0,1.9-0.9,1.9-1.9v-1.9C50.4,51.4,49.5,52.3,48.4,52.3z"/>
<g>
	<polygon class="st4" points="10.7,42.7 8.3,37 6.2,37 9.7,45 11.6,45 15.1,37 13.2,37 	"/>
	<polygon class="st4" points="17.6,41.6 21.3,41.6 21.3,40.2 17.6,40.2 17.6,38.5 21.8,38.5 21.8,37 15.7,37 15.7,45 22,45 22,43.5 
		17.6,43.5 	"/>
	<path class="st4" d="M28.8,42.4c0.5-0.2,0.9-0.6,1.2-1c0.3-0.4,0.4-0.9,0.4-1.6s-0.2-1.1-0.4-1.6c-0.3-0.4-0.7-0.8-1.2-1
		c-0.5-0.2-1.2-0.3-1.9-0.3h-3.5v8h1.9v-2.2h1.6c0.1,0,0.1,0,0.1,0l1.6,2.2h2L28.8,42.4L28.8,42.4z M28.1,38.9
		c0.3,0.2,0.4,0.6,0.4,1.1c0,0.4-0.2,0.8-0.4,1.1c-0.3,0.2-0.7,0.4-1.3,0.4h-1.5v-2.8h1.5C27.4,38.5,27.8,38.6,28.1,38.9z"/>
	<path class="st4" d="M32.8,34.3c-0.3,0-0.5,0.1-0.7,0.3c-0.2,0.2-0.3,0.4-0.3,0.7c0,0.3,0.1,0.5,0.3,0.7c0.2,0.2,0.4,0.3,0.7,0.3
		c0.3,0,0.5-0.1,0.7-0.3c0.2-0.2,0.3-0.4,0.3-0.7c0-0.3-0.1-0.5-0.3-0.7C33.3,34.4,33.1,34.3,32.8,34.3z"/>
	<rect x="31.9" y="37" class="st4" width="1.9" height="8"/>
	<path class="st4" d="M35.2,43.6c-0.2,0-0.4,0.1-0.5,0.2c-0.2,0.1-0.2,0.3-0.2,0.5c0,0.2,0.1,0.4,0.2,0.5c0.2,0.1,0.3,0.2,0.5,0.2
		c0.2,0,0.4-0.1,0.5-0.2c0.1-0.1,0.2-0.3,0.2-0.5c0-0.2-0.1-0.4-0.2-0.5C35.6,43.6,35.4,43.6,35.2,43.6z"/>
	<path class="st4" d="M40.6,40.1c-0.4-0.2-0.9-0.3-1.5-0.3h-2.3V45h2.3c0.6,0,1.1-0.1,1.5-0.3c0.4-0.2,0.8-0.5,1-0.9
		s0.3-0.8,0.3-1.3c0-0.5-0.1-1-0.3-1.4C41.4,40.6,41,40.3,40.6,40.1z M40.5,43.2c-0.2,0.2-0.3,0.4-0.6,0.6c-0.3,0.1-0.6,0.2-0.9,0.2
		h-1.1v-3.2h1.1c0.3,0,0.7,0.1,0.9,0.2c0.3,0.1,0.4,0.3,0.6,0.6c0.2,0.2,0.2,0.5,0.2,0.8C40.8,42.7,40.7,43,40.5,43.2z"/>
	<path class="st4" d="M47,40.6c-0.2-0.3-0.4-0.5-0.8-0.7c-0.3-0.2-0.7-0.2-1.2-0.2h-2.2V45H44v-1.4h1.1c0.4,0,0.8-0.1,1.2-0.2
		c0.3-0.2,0.6-0.4,0.8-0.7c0.2-0.3,0.3-0.6,0.3-1C47.3,41.3,47.3,41,47,40.6z M45.9,42.3c-0.2,0.2-0.4,0.2-0.8,0.2h-0.9v-1.8H45
		c0.4,0,0.7,0.1,0.8,0.2c0.2,0.2,0.3,0.4,0.3,0.7C46.2,42,46,42.1,45.9,42.3z"/>
</g>
</svg>
