<?xml version="1.0" encoding="utf-8"?>
<!-- Generator: Adobe Illustrator 28.3.0, SVG Export Plug-In . SVG Version: 6.00 Build 0)  -->
<svg version="1.1" id="Layer_1" xmlns="http://www.w3.org/2000/svg" xmlns:xlink="http://www.w3.org/1999/xlink" x="0px" y="0px"
	 viewBox="0 0 146 46.9" style="enable-background:new 0 0 146 46.9;" xml:space="preserve">
<style type="text/css">
	.st0{fill-rule:evenodd;clip-rule:evenodd;fill:#1A1C38;}
	.st1{fill:#FFFFFF;}
</style>
<g>
	<path class="st0" d="M27.6,11c-0.4,0-0.7,0.3-0.7,0.7v10.5c0,0.4,0.3,0.7,0.7,0.7s0.7-0.3,0.7-0.7V11.6C28.3,11.3,28,11,27.6,11z"
		/>
	<path class="st0" d="M27.6,23.9c-0.4,0-0.7,0.3-0.7,0.7v2.6l0,0.2h0c0,0.2,0.2,0.3,0.3,0.4l4.6,2.6c0.1,0.1,0.2,0.1,0.3,0.1
		c0.1,0,0.1,0,0.2,0c0.2,0,0.3-0.2,0.4-0.3c0.1-0.2,0.1-0.3,0.1-0.5c0-0.2-0.2-0.3-0.3-0.4l-4.3-2.5v-2.2
		C28.3,24.2,28,23.9,27.6,23.9z"/>
	<path class="st0" d="M29.9,9.7c-0.4,0-0.7,0.3-0.7,0.7v5.3c0,0.1,0,0.1,0,0.2c0,0.2,0.2,0.4,0.3,0.5l2.3,1.3
		c0.1,0.1,0.2,0.1,0.3,0.1c0.1,0,0.1,0,0.2,0c0.2,0,0.3-0.2,0.4-0.3c0.1-0.2,0.1-0.3,0.1-0.5c0-0.2-0.2-0.3-0.3-0.4l-2-1.1v-4.9
		C30.6,10,30.3,9.7,29.9,9.7z"/>
	<path class="st0" d="M32.9,14.2V9c0-0.4-0.3-0.7-0.7-0.7S31.5,8.6,31.5,9v5.2c0,0.4,0.3,0.7,0.7,0.7S32.9,14.6,32.9,14.2z"/>
	<path class="st0" d="M38.4,10.7v7.6c0,0.4,0.3,0.7,0.7,0.7s0.7-0.3,0.7-0.7v-8c0-0.3-0.1-0.5-0.4-0.6l-2.3-1.3
		c-0.2-0.1-0.3-0.1-0.5-0.1c-0.2,0-0.3,0.2-0.4,0.3C36,9,36.1,9.4,36.5,9.6l1,0.6l0,0L38.4,10.7z"/>
	<path class="st0" d="M36.5,26.8c-0.2,0.1-0.3,0.2-0.3,0.4c0,0.2,0,0.4,0.1,0.5c0.1,0.2,0.2,0.3,0.4,0.3c0.1,0,0.1,0,0.2,0
		c0.1,0,0.2,0,0.3-0.1l2.2-1.3c0.2-0.1,0.4-0.3,0.4-0.6l0-4.8l1.9-1.1c0.2-0.1,0.4-0.3,0.4-0.6v-7.8c0-0.4-0.3-0.7-0.7-0.7
		s-0.7,0.3-0.7,0.7v7.5l-2,1.1c-0.3,0.1-0.4,0.5-0.3,0.7l0,4.7L36.5,26.8z"/>
	<path class="st0" d="M36.8,30.5c0.1,0,0.2,0,0.3-0.1l4.5-2.6c0.2-0.1,0.4-0.3,0.4-0.6v-5.3c0-0.4-0.3-0.7-0.7-0.7s-0.7,0.3-0.7,0.7
		v4.9l-2.9,1.7l0,0l-1.3,0.8c-0.2,0.1-0.3,0.2-0.3,0.4c0,0.2,0,0.4,0.1,0.5C36.3,30.3,36.6,30.5,36.8,30.5z"/>
	<path class="st0" d="M36.8,13.7c-0.4,0-0.7,0.3-0.7,0.7v10.3c0,0.4,0.3,0.7,0.7,0.7s0.7-0.3,0.7-0.7V14.4
		C37.5,14,37.2,13.7,36.8,13.7z"/>
	<path class="st0" d="M28.2,39.6c-0.1-0.1-0.3-0.1-0.5,0l-1.6,0.9c-0.1,0.1-0.3,0.1-0.5,0l-9-5.2c-0.1-0.1-0.2-0.2-0.2-0.4l0-22.8
		c0-0.3,0.2-0.5,0.5-0.5H18c0.3,0,0.5-0.2,0.5-0.5V8c0-0.3-0.2-0.5-0.5-0.5h-5c-0.3,0-0.5,0.2-0.5,0.5l0,29.1c0,0.2,0.1,0.3,0.2,0.4
		l13,7.5c0.1,0.1,0.3,0.1,0.5,0l5-2.9c0.3-0.2,0.3-0.7,0-0.8L28.2,39.6z"/>
	<path class="st0" d="M55.7,7.6h-5c-0.3,0-0.5,0.2-0.5,0.5v3c0,0.3,0.2,0.5,0.5,0.5h1.1c0.3,0,0.5,0.2,0.5,0.5v22.8
		c0,0.2-0.1,0.3-0.2,0.4l-9,5.2c-0.1,0.1-0.3,0.1-0.5,0l-7.4-4.3l0-7.6c0,0,0-0.1,0-0.1v-7.8c0-0.4-0.3-0.7-0.7-0.7
		s-0.7,0.3-0.7,0.7v6.7l-3.2-1.9V18c0-0.4-0.3-0.7-0.7-0.7s-0.7,0.3-0.7,0.7v7.9c0,0.3,0.2,0.5,0.4,0.6l4.2,2.4v6.5l-8.7-5
		c-0.1-0.1-0.2-0.2-0.2-0.4V5.6c0-0.3,0.2-0.5,0.5-0.5h8.4v12.7l-1.8,1c-0.3,0.1-0.5,0.3-0.5,0.6v5.2c0,0.4,0.3,0.7,0.7,0.7
		s0.7-0.3,0.7-0.7v-4.8l1.9-1.1c0.2-0.1,0.4-0.3,0.4-0.6v-6.6l1.3,0.8c0.3,0.2,0.7,0.1,0.9-0.2c0.1-0.2,0.1-0.3,0.1-0.5
		c0-0.2-0.2-0.3-0.3-0.4l-2-1.1v-5h4.1h1.1h3c0.3,0,0.5,0.2,0.5,0.5V30c0,0.2-0.1,0.3-0.2,0.4l-6.1,3.5c-0.3,0.2-0.3,0.7,0,0.8
		l3,1.7c0.1,0.1,0.3,0.1,0.5,0l6.6-3.8c0.1-0.1,0.2-0.2,0.2-0.4c0-7.4,0-23.1,0-30.7c0-0.3-0.2-0.5-0.5-0.5h-7h-1.1H21.4
		c-0.3,0-0.5,0.2-0.5,0.5c0,7.6,0,23.3,0,30.7c0,0.2,0.1,0.3,0.2,0.4L42.6,45c0.1,0.1,0.3,0.1,0.5,0L56,37.6
		c0.1-0.1,0.2-0.2,0.2-0.4V8C56.2,7.8,56,7.6,55.7,7.6z"/>
</g>
<g>
	<path class="st1" d="M100.3,34c0,0-0.1,0-0.1,0c0,0-0.1,0.1-0.1,0.1c0,0.3-0.1,0.6-0.3,1c-0.1,0.4-0.3,0.7-0.4,1
		c-0.2,0.3-0.3,0.4-0.4,0.4c-0.1,0-0.2-0.1-0.2-0.4c-0.1-0.2-0.1-0.6-0.1-1.2c0-0.5,0-1.2,0.1-2c0-0.1,0-0.2-0.1-0.3
		c-0.1-0.1-0.2-0.1-0.3-0.1c-0.1,0-0.2,0-0.2,0.1c-0.1,0.1-0.1,0.2-0.1,0.3c-0.1-0.1-0.2-0.1-0.3-0.2c-0.1-0.1-0.3-0.1-0.4-0.1
		c-0.2,0-0.4,0-0.6,0.1c-0.2,0.1-0.3,0.2-0.4,0.4c-0.1,0.1-0.2,0.3-0.3,0.5s-0.1,0.4-0.1,0.6c0,0.2,0,0.4,0,0.5c0,0.1,0,0.1,0,0.2
		c-0.1,0.2-0.1,0.4-0.2,0.6c-0.1,0.2-0.2,0.4-0.2,0.6c-0.1,0.2-0.2,0.3-0.2,0.4c-0.1,0.1-0.1,0.1-0.1,0.1c-0.1,0-0.1-0.1-0.2-0.2
		c-0.1-0.1-0.1-0.4-0.1-0.8c0-0.4-0.1-0.8-0.1-1.4c0-0.7,0-1.5,0.1-2.2c0.6,0,0.9,0,1,0c0,0,0.1,0,0.1-0.1c0-0.1,0-0.1,0-0.2
		c0-0.1-0.1-0.1-0.2-0.1c-0.1,0-0.5-0.1-1-0.1c0-0.4,0.1-0.7,0.1-1c0-0.1,0-0.2-0.2-0.2c-0.1-0.1-0.3-0.1-0.4-0.1
		c-0.1,0-0.2,0.1-0.2,0.2c0,0.2-0.1,0.6-0.1,1.1c-0.5,0-0.8,0-0.9,0.1c-0.1,0-0.1,0-0.1,0.1c0,0.1,0,0.1,0,0.2
		c0,0.1,0.1,0.1,0.1,0.1c0.3,0,0.6,0,0.9-0.1c0,0.6-0.1,1.2-0.1,1.8c0,0.3,0,0.5,0,0.8c0,0.1-0.1,0.2-0.1,0.3
		c-0.1,0.4-0.3,0.7-0.4,1c-0.2,0.3-0.3,0.4-0.4,0.4c-0.1,0-0.2-0.1-0.2-0.4c-0.1-0.2-0.1-0.6-0.1-1.2c0-0.5,0-1.2,0.1-2
		c0-0.1,0-0.2-0.1-0.3c-0.1-0.1-0.2-0.1-0.3-0.1c-0.1,0-0.2,0-0.2,0.1c-0.1,0.1-0.1,0.2-0.1,0.3c-0.1-0.1-0.2-0.1-0.3-0.2
		c-0.1-0.1-0.3-0.1-0.4-0.1c-0.2,0-0.4,0-0.6,0.1c-0.2,0.1-0.3,0.2-0.4,0.4c-0.1,0.1-0.2,0.3-0.3,0.5c0,0.1,0,0.1,0,0.2
		c-0.3,0.2-0.7,0.3-1.2,0.5c0.1-0.4,0.2-0.7,0.2-1.1c0-0.2,0-0.4,0-0.5c0-0.2-0.1-0.4-0.1-0.6c-0.1-0.2-0.2-0.4-0.3-0.5
		c-0.1-0.2-0.2-0.3-0.4-0.4c-0.2-0.1-0.4-0.2-0.6-0.2c-0.2,0-0.4,0.1-0.5,0.2c-0.2,0.1-0.4,0.3-0.6,0.5c-0.2,0.2-0.4,0.5-0.5,0.9
		c-0.2,0.4-0.3,0.8-0.4,1.3c0-0.8,0.1-1.8,0.3-3c0-0.1,0-0.2-0.1-0.2c-0.1-0.1-0.2-0.1-0.3-0.1c-0.1,0-0.2,0-0.3,0
		c-0.1,0-0.2,0.1-0.2,0.2c-0.1,0.7-0.2,1.4-0.2,2.3c0,0.8,0,1.6,0.1,2.2c0.1,0.6,0.1,1.2,0.2,1.5c0,0.1,0.1,0.2,0.2,0.3
		c0.1,0,0.2,0,0.3-0.1c0.1,0.3,0.3,0.4,0.7,0.4c0.3,0,0.6-0.1,0.9-0.3c0.3-0.2,0.6-0.5,0.9-0.9c0.3-0.4,0.5-0.8,0.7-1.2
		c0.5-0.1,0.9-0.3,1.2-0.4c0,0.1,0,0.3,0,0.4c0,0.4,0.1,0.8,0.3,1.1c0.2,0.3,0.4,0.5,0.7,0.5c0.1,0,0.2,0,0.3-0.1
		c0.1-0.1,0.2-0.2,0.3-0.4c0.1-0.2,0.2-0.3,0.2-0.4c0.1-0.1,0.1-0.3,0.2-0.5c0.1-0.2,0.1-0.3,0.1-0.4c0,0.6,0.1,1.2,0.3,1.6
		c0.2,0.4,0.5,0.6,0.8,0.6c0.2,0,0.3-0.1,0.5-0.3c0.2-0.2,0.3-0.4,0.4-0.7c0-0.1,0.1-0.2,0.1-0.3c0,0.3,0.1,0.5,0.2,0.7
		c0.2,0.5,0.5,0.8,0.9,0.8c0.1,0,0.1,0,0.2-0.1c0.1-0.1,0.2-0.1,0.3-0.3c0.1-0.1,0.2-0.3,0.3-0.5c0.1-0.1,0.1-0.2,0.2-0.4
		c0,0.1,0,0.1,0.1,0.2c0.2,0.3,0.4,0.5,0.7,0.5c0.1,0,0.2,0,0.3-0.1c0.1-0.1,0.2-0.2,0.3-0.4c0.1-0.2,0.2-0.3,0.2-0.4
		c0.1-0.1,0.1-0.3,0.2-0.5c0.1-0.2,0.1-0.3,0.1-0.4c0,0.6,0.1,1.2,0.3,1.6c0.2,0.4,0.5,0.6,0.8,0.6c0.2,0,0.3-0.1,0.5-0.3
		c0.2-0.2,0.3-0.4,0.4-0.7c0.1-0.3,0.2-0.5,0.3-0.8c0.1-0.3,0.2-0.5,0.2-0.7c0-0.2,0.1-0.3,0.1-0.3c0,0,0,0-0.1-0.1
		C100.4,34,100.3,34,100.3,34z M86.7,36.5C86.3,36.8,86,37,85.8,37c-0.1,0-0.2-0.1-0.2-0.2c0-0.3,0.2-0.6,0.6-1
		c0.4-0.3,0.9-0.6,1.4-0.7c0,0,0,0,0.1,0c0,0,0,0,0.1,0C87.4,35.7,87.1,36.1,86.7,36.5z M87.9,34.7c-0.3,0.1-0.4,0.1-0.5,0.1
		c-0.5,0.1-1,0.3-1.4,0.6c-0.4,0.3-0.6,0.6-0.7,0.9c0-0.1,0-0.2,0-0.2c0.1-0.6,0.1-1.2,0.3-1.7c0.1-0.5,0.2-0.9,0.4-1.3
		c0.1-0.3,0.3-0.6,0.5-0.9c0.2-0.2,0.3-0.4,0.5-0.5c0.2-0.1,0.3-0.2,0.5-0.2c0.2,0,0.5,0.1,0.6,0.4s0.2,0.6,0.2,1.1
		C88.2,33.6,88.1,34.2,87.9,34.7z M91.4,34.3c-0.1,0.3-0.2,0.7-0.4,1.1c-0.2,0.4-0.3,0.7-0.5,0.8c0,0-0.1-0.2-0.1-0.3
		c0-0.2-0.1-0.4-0.1-0.6c0-0.3,0-0.6,0.1-0.9c0.1-0.3,0.2-0.5,0.3-0.7c0.1-0.2,0.3-0.3,0.4-0.3c0.1,0,0.3,0.1,0.4,0.2
		C91.6,33.7,91.5,33.9,91.4,34.3z M97.6,34.3c-0.1,0.3-0.2,0.7-0.4,1.1c-0.2,0.4-0.3,0.7-0.5,0.8c0,0-0.1-0.2-0.1-0.3
		c0-0.2-0.1-0.4-0.1-0.6c0-0.3,0-0.6,0.1-0.9c0.1-0.3,0.2-0.5,0.3-0.7c0.1-0.2,0.3-0.3,0.4-0.3c0.1,0,0.3,0.1,0.4,0.2
		C97.7,33.7,97.7,33.9,97.6,34.3z"/>
	<path class="st1" d="M106.1,31.1c-0.1-0.1-0.2-0.2-0.3-0.3c-0.1-0.1-0.3-0.1-0.5-0.1c-0.3,0-0.6,0.1-0.9,0.4
		c-0.3,0.2-0.5,0.6-0.7,1c0-0.4,0.1-0.7,0.1-1.1c0-0.1,0-0.2-0.2-0.3c-0.1-0.1-0.2-0.1-0.4-0.1c-0.1,0-0.2,0.1-0.2,0.2
		c-0.1,0.6-0.2,1.4-0.2,2.4c0,0.9,0,1.8,0.1,2.6c0.1,0.8,0.2,1.3,0.3,1.6c0,0.1,0.1,0.1,0.2,0.1c0.1,0,0.2,0,0.2-0.1
		c0.1-0.1,0.1-0.1,0.1-0.2c-0.1-0.7-0.1-1.4-0.1-2.2c0.2,0,0.5-0.1,0.8-0.2c0.3-0.1,0.5-0.3,0.8-0.5c0.2-0.2,0.5-0.4,0.7-0.7
		c0.2-0.2,0.4-0.5,0.5-0.8c0.1-0.3,0.2-0.6,0.2-0.9c0-0.1,0-0.3-0.1-0.4C106.3,31.4,106.2,31.3,106.1,31.1z M105.6,32.6
		c-0.1,0.3-0.2,0.6-0.4,0.8c-0.1,0.2-0.3,0.4-0.5,0.6c-0.2,0.2-0.4,0.3-0.6,0.4c-0.2,0.1-0.4,0.2-0.6,0.2c0-0.3,0-0.5,0-0.6
		c0.1-0.5,0.2-1,0.4-1.5c0.2-0.5,0.4-0.8,0.7-1.1s0.5-0.4,0.8-0.4c0.1,0,0.1,0,0.2,0.1c0,0,0.1,0.1,0.1,0.2c0,0.1,0,0.1,0,0.2
		s0,0.1,0,0.2C105.7,32,105.6,32.3,105.6,32.6z"/>
	<path class="st1" d="M123.6,32.4c0.1,0,0.2-0.1,0.3-0.2c0.1-0.1,0-0.2-0.1-0.3c-0.1-0.1-0.2-0.1-0.3-0.1c-0.1,0.1-0.2,0.1-0.2,0.3
		c0,0.1,0,0.2,0.1,0.2C123.5,32.4,123.5,32.4,123.6,32.4z"/>
	<path class="st1" d="M133,34c-0.1,0-0.1-0.1-0.2,0c-0.1,0-0.1,0.1-0.1,0.1c0,0.2-0.2,0.7-0.5,1.4c-0.3,0.7-0.5,1-0.7,1.1
		c-0.1-0.1-0.1-0.3-0.1-0.6c0-0.3,0-0.6,0-1c0-0.4,0-0.7,0-1.1c0-0.4,0-0.7-0.1-0.9c0-0.1-0.1-0.3-0.2-0.3c-0.1-0.1-0.2-0.1-0.3-0.1
		c-0.1,0-0.2,0-0.3,0.1c-0.2,0.1-0.4,0.4-0.7,0.9s-0.4,1-0.6,1.5c0-0.3,0-0.6,0-1.1c0-0.5,0.1-0.9,0.1-1.1c0-0.1,0-0.1-0.1-0.2
		c-0.1,0-0.1-0.1-0.2-0.1c-0.1,0-0.2,0-0.3,0c-0.1,0-0.2,0-0.2,0.1c-0.1,0-0.1,0.1-0.1,0.1c0,0.4-0.1,0.8-0.1,1.3c0,0,0,0,0,0.1
		c0,0-0.1,0-0.1,0.1c-0.1,0.1-0.2,0.1-0.3,0.1c-0.1,0-0.3,0.1-0.4,0.1c0-0.3,0-0.6-0.1-0.8c-0.1-0.2-0.1-0.4-0.2-0.5
		c-0.1-0.1-0.2-0.2-0.3-0.3c-0.1-0.1-0.2-0.1-0.4-0.1c-0.2,0-0.4,0.1-0.5,0.3c-0.1,0.2-0.2,0.4-0.2,0.6c0,0,0,0.1,0,0.1
		c-0.1-0.1-0.2-0.1-0.4-0.1c-0.1,0-0.2,0.1-0.3,0.1c-0.1,0.2-0.1,0.5-0.1,0.9c0,0.1,0,0.2,0,0.3c0,0.1-0.1,0.2-0.1,0.4
		c-0.1,0.2-0.1,0.4-0.2,0.5c-0.1,0.1-0.1,0.3-0.2,0.4c-0.1,0.1-0.2,0.2-0.3,0.3c-0.1,0-0.2-0.2-0.3-0.5c-0.1-0.3-0.1-0.7-0.1-1.2
		c0-0.5,0-1.2,0.1-1.9c0-0.1,0-0.2-0.2-0.3c-0.1-0.1-0.2-0.1-0.4-0.1c-0.1,0-0.2,0.1-0.2,0.2c-0.1,0.5-0.1,1-0.1,1.5
		c0,0.3,0,0.5,0,0.8c-0.1,0.2-0.1,0.4-0.2,0.6c-0.1,0.2-0.2,0.4-0.2,0.6c-0.1,0.2-0.2,0.3-0.2,0.4c-0.1,0.1-0.1,0.1-0.1,0.1
		c-0.1,0-0.1-0.1-0.2-0.2c-0.1-0.1-0.1-0.4-0.1-0.8c0-0.4-0.1-0.8-0.1-1.4c0-0.7,0-1.5,0.1-2.2c0.6,0,0.9,0,1,0c0,0,0.1,0,0.1-0.1
		c0-0.1,0-0.1,0-0.2c0-0.1-0.1-0.1-0.2-0.1c-0.1,0-0.5-0.1-1-0.1c0-0.4,0.1-0.7,0.1-1c0-0.1,0-0.2-0.2-0.2c-0.1-0.1-0.3-0.1-0.4-0.1
		c-0.1,0-0.2,0.1-0.2,0.2c0,0.2-0.1,0.6-0.1,1.1c-0.5,0-0.8,0-0.9,0.1c-0.1,0-0.1,0-0.1,0.1c0,0.1,0,0.1,0,0.2
		c0,0.1,0.1,0.1,0.1,0.1c0.3,0,0.6,0,0.9-0.1c0,0.6-0.1,1.2-0.1,1.8c0,0.2,0,0.4,0,0.6c-0.2,0.5-0.4,0.9-0.7,1.3
		c-0.4,0.5-0.7,0.7-0.9,0.7c-0.1,0-0.2,0-0.2-0.1c-0.1-0.1-0.1-0.1-0.2-0.2c0-0.1-0.1-0.2-0.1-0.3c0-0.1-0.1-0.2-0.1-0.4
		c0-0.1,0-0.2,0-0.3c0-0.1,0-0.2,0-0.2c0-0.4,0-0.8,0.1-1.2c0.1-0.4,0.2-0.6,0.3-0.7c0.1,0.1,0.1,0.2,0.2,0.4c0,0.2,0.1,0.3,0,0.5
		c0,0.1,0,0.1,0.1,0.2c0.1,0.1,0.1,0.1,0.2,0.1c0.1,0,0.2-0.1,0.2-0.3c0,0,0,0,0-0.1c0-0.1,0-0.1,0-0.1c0,0,0-0.1,0-0.2
		c0-0.1,0-0.1,0-0.2c0-0.1,0-0.1,0-0.2c0-0.1,0-0.1-0.1-0.2c0-0.1-0.1-0.1-0.1-0.2c0-0.1-0.1-0.1-0.1-0.1c-0.1,0-0.1-0.1-0.2-0.1
		c-0.1,0-0.1,0-0.2,0c-0.3,0-0.6,0.2-0.8,0.5c-0.2,0.3-0.3,0.8-0.3,1.4c0,0.1-0.1,0.2-0.2,0.3c-0.1,0.2-0.2,0.3-0.3,0.4
		c-0.1,0.1-0.2,0.3-0.3,0.4c-0.1,0.1-0.2,0.2-0.3,0.3s-0.2,0.1-0.3,0.1c-0.1,0-0.2-0.1-0.4-0.4c-0.1-0.3-0.2-0.6-0.2-1
		c0.2,0,0.3,0,0.5-0.1c0.2-0.1,0.3-0.3,0.4-0.5c0.1-0.2,0.2-0.4,0.2-0.6c0-0.3-0.1-0.5-0.2-0.7c-0.1-0.2-0.3-0.2-0.6-0.2
		c-0.2,0-0.3,0.1-0.5,0.2s-0.3,0.3-0.3,0.5c-0.1,0.2-0.1,0.4-0.2,0.6c0,0.2-0.1,0.4-0.1,0.5c0,0.2,0,0.4,0.1,0.6
		c-0.1,0.3-0.1,0.5-0.2,0.7c-0.1,0.2-0.2,0.4-0.2,0.6c-0.1,0.2-0.2,0.3-0.2,0.4c-0.1,0.1-0.1,0.1-0.1,0.1c-0.1,0-0.1-0.1-0.2-0.2
		c-0.1-0.1-0.1-0.4-0.1-0.8c0-0.4-0.1-0.8-0.1-1.4c0-0.7,0-1.5,0.1-2.2c0.6,0,0.9,0,1,0c0,0,0.1,0,0.1-0.1c0-0.1,0-0.1,0-0.2
		c0-0.1-0.1-0.1-0.2-0.1c-0.1,0-0.5-0.1-1-0.1c0-0.4,0.1-0.7,0.1-1c0-0.1,0-0.2-0.2-0.2c-0.1-0.1-0.3-0.1-0.4-0.1
		c-0.1,0-0.2,0.1-0.2,0.2c0,0.2-0.1,0.6-0.1,1.1c-0.5,0-0.8,0-0.9,0.1c-0.1,0-0.1,0-0.1,0.1c0,0.1,0,0.1,0,0.2
		c0,0.1,0.1,0.1,0.1,0.1c0.3,0,0.6,0,0.9-0.1c0,0.6-0.1,1.2-0.1,1.8c0,0,0,0,0,0.1c-0.1,0-0.1,0.1-0.2,0.1c-0.1,0.1-0.2,0.1-0.3,0.1
		c-0.1,0-0.3,0.1-0.4,0.1c0-0.3,0-0.6-0.1-0.8c-0.1-0.2-0.1-0.4-0.2-0.5c-0.1-0.1-0.2-0.2-0.3-0.3c-0.1-0.1-0.2-0.1-0.4-0.1
		c-0.2,0-0.4,0.1-0.5,0.3c-0.1,0.2-0.2,0.4-0.2,0.6c0,0,0,0.1,0,0.1c-0.1-0.1-0.2-0.1-0.4-0.1c-0.1,0-0.2,0.1-0.3,0.1
		c0,0.1-0.1,0.2-0.1,0.3c-0.1,0-0.2,0.1-0.3,0.1c-0.2,0-0.3,0-0.4-0.1c-0.1,0-0.2-0.1-0.2-0.2c-0.1-0.1-0.1-0.2-0.2-0.2
		c0-0.1-0.1-0.2-0.1-0.3c0-0.1-0.1-0.2-0.1-0.2c-0.1-0.1-0.3-0.2-0.5-0.2c-0.2,0-0.3,0.1-0.4,0.2c-0.1,0.2-0.2,0.4-0.3,0.7
		c-0.1,0.3-0.2,0.5-0.2,0.6c0-0.4,0-0.9,0.1-1.6c0-0.1,0-0.1-0.1-0.2c-0.1,0-0.1-0.1-0.2-0.1c-0.1,0-0.2,0-0.3,0c-0.1,0-0.2,0-0.2,0
		c-0.1,0-0.1,0.1-0.1,0.1c-0.1,0.6-0.1,1.2-0.1,1.7c0,0.6,0.1,1.1,0.1,1.5c0.1,0.4,0.1,0.7,0.2,0.8c0.1,0.1,0.2,0.2,0.3,0.2
		c0.1,0,0.2-0.1,0.2-0.2c0,0,0-0.2,0.1-0.4c0.1-0.3,0.1-0.5,0.2-0.8c0.1-0.3,0.1-0.6,0.2-0.9c0.1-0.3,0.2-0.6,0.3-0.7
		c0,0,0.1,0.1,0.1,0.1c0,0,0.1,0.1,0.2,0.2c0.1,0.1,0.2,0.1,0.3,0.2c0.1,0.1,0.3,0.1,0.4,0.1c0.2,0,0.3,0,0.5,0c0,0,0.1,0,0.1,0
		c0,0.1,0,0.2,0,0.3c0,0.3,0,0.5,0.1,0.8c0.1,0.2,0.2,0.4,0.3,0.6s0.3,0.3,0.4,0.4c0.2,0.1,0.3,0.1,0.5,0.1c0.3,0,0.6-0.2,0.8-0.5
		c0.3-0.3,0.4-0.7,0.5-1.3c0.3-0.1,0.6-0.2,0.8-0.3c0,0,0,0,0.1,0c0,0.8,0.1,1.4,0.3,1.9c0.2,0.5,0.5,0.8,0.9,0.8
		c0.1,0,0.1,0,0.2-0.1c0.1-0.1,0.2-0.1,0.3-0.3c0.1-0.1,0.2-0.3,0.3-0.5c0.1-0.2,0.1-0.4,0.2-0.6c0,0.1,0.1,0.2,0.1,0.3
		c0.3,0.4,0.6,0.6,1,0.6c0.2,0,0.3,0,0.5-0.1s0.3-0.2,0.4-0.3c0.1-0.1,0.2-0.3,0.3-0.4c0.1-0.1,0.2-0.3,0.2-0.4c0,0.1,0,0.2,0,0.2
		c0.1,0.3,0.1,0.5,0.2,0.6c0.1,0.2,0.2,0.3,0.3,0.4c0.1,0.1,0.3,0.2,0.4,0.2c0.1,0,0.2,0.1,0.4,0.1c0.2,0,0.4-0.1,0.6-0.2
		c0.2-0.1,0.4-0.3,0.6-0.5c0.2-0.2,0.3-0.4,0.5-0.7c0-0.1,0.1-0.1,0.1-0.2c0.1,0.4,0.1,0.7,0.2,1c0.2,0.5,0.5,0.8,0.9,0.8
		c0.1,0,0.1,0,0.2-0.1c0.1-0.1,0.2-0.1,0.3-0.3c0.1-0.1,0.2-0.3,0.3-0.5c0.1-0.1,0.1-0.2,0.2-0.4c0.1,0.3,0.2,0.5,0.3,0.7
		c0.2,0.2,0.4,0.3,0.6,0.3c0.2,0,0.3-0.1,0.5-0.3c0.2-0.2,0.3-0.4,0.4-0.6c0.1-0.1,0.1-0.3,0.2-0.4c0.1,0.2,0.1,0.3,0.2,0.5
		c0.1,0.2,0.3,0.3,0.4,0.4c0.2,0.1,0.3,0.1,0.5,0.1c0.3,0,0.6-0.2,0.8-0.5c0.3-0.3,0.4-0.7,0.5-1.3c0.3-0.1,0.6-0.2,0.8-0.3
		c0,0,0,0,0,0c0,0.3,0,0.7,0.1,1c0.1,0.5,0.1,0.9,0.2,1.1c0,0.1,0.1,0.1,0.1,0.2s0.1,0.1,0.1,0.1c0,0,0.1,0,0.1,0c0,0,0.1,0,0.1,0
		c0,0,0,0,0.1-0.1c0.2-1,0.4-1.8,0.7-2.4c0.2-0.6,0.5-1,0.7-1.2c0,0.2,0,0.3,0,0.5c0,0.2,0,0.4,0,0.6c0,0.2,0,0.4,0,0.6
		c0,0.2,0,0.4,0,0.6c0,0.2,0,0.4,0.1,0.6c0,0.2,0.1,0.3,0.1,0.5c0.1,0.1,0.1,0.2,0.2,0.3c0.1,0.1,0.2,0.1,0.3,0.1
		c0.2,0,0.3-0.1,0.5-0.3c0.2-0.2,0.3-0.4,0.5-0.7c0.1-0.3,0.3-0.5,0.4-0.8c0.1-0.3,0.2-0.5,0.3-0.7c0.1-0.2,0.1-0.3,0.1-0.3
		C133.1,34.1,133.1,34.1,133,34z M111.8,35.4c-0.1,0.2-0.1,0.3-0.2,0.4c-0.1,0.1-0.2,0.2-0.2,0.2c-0.1,0.1-0.2,0.1-0.2,0.1
		c-0.1,0-0.2-0.1-0.3-0.3c-0.1-0.2-0.2-0.5-0.2-0.8c0-0.3,0-0.6,0.1-0.9c0.1,0.2,0.3,0.4,0.5,0.5c0.2,0.1,0.5,0.2,0.7,0.2
		C112,35,111.9,35.3,111.8,35.4z M112,34.4C112,34.4,112,34.4,112,34.4C112,34.4,112,34.4,112,34.4c-0.3,0-0.5-0.1-0.6-0.2
		c-0.1-0.1-0.2-0.3-0.2-0.5c0-0.1,0-0.2,0.1-0.3c0.1-0.1,0.1-0.2,0.2-0.2c0.1,0,0.3,0.1,0.4,0.4S112,34,112,34.4
		C112,34.4,112,34.4,112,34.4z M116.2,33.8c0.1-0.2,0.1-0.4,0.2-0.5c0.1-0.1,0.1-0.2,0.2-0.2c0.1,0,0.1,0.1,0.1,0.1
		c0,0.1,0.1,0.2,0.1,0.3c0,0.2-0.1,0.4-0.2,0.6c-0.1,0.2-0.3,0.3-0.4,0.3C116.1,34.3,116.1,34,116.2,33.8z M127.1,35.4
		c-0.1,0.2-0.1,0.3-0.2,0.4c-0.1,0.1-0.2,0.2-0.2,0.2c-0.1,0.1-0.2,0.1-0.2,0.1c-0.1,0-0.2-0.1-0.3-0.3c-0.1-0.2-0.2-0.5-0.2-0.8
		c0-0.3,0-0.6,0.1-0.9c0.1,0.2,0.3,0.4,0.5,0.5c0.2,0.1,0.5,0.2,0.7,0.2C127.2,35,127.2,35.3,127.1,35.4z M127.3,34.4
		C127.3,34.4,127.3,34.4,127.3,34.4C127.3,34.4,127.3,34.4,127.3,34.4c-0.3,0-0.5-0.1-0.6-0.2c-0.1-0.1-0.2-0.3-0.2-0.5
		c0-0.1,0-0.2,0.1-0.3c0.1-0.1,0.1-0.2,0.2-0.2c0.1,0,0.3,0.1,0.4,0.4S127.3,34,127.3,34.4C127.3,34.4,127.3,34.4,127.3,34.4z"/>
</g>
<g>
	<polygon class="st1" points="67.2,23.9 62.8,13.6 59.1,13.6 65.4,28.1 68.7,28.1 75,13.6 71.7,13.6 	"/>
	<polygon class="st1" points="79.5,22 86.3,22 86.3,19.4 79.5,19.4 79.5,16.3 87.1,16.3 87.1,13.6 76.2,13.6 76.2,28.1 87.4,28.1 
		87.4,25.4 79.5,25.4 	"/>
	<path class="st1" d="M99.7,23.4c0.9-0.4,1.7-1,2.2-1.8c0.5-0.8,0.8-1.7,0.8-2.8c0-1.1-0.3-2-0.8-2.8c-0.5-0.8-1.2-1.4-2.2-1.8
		c-0.9-0.4-2.1-0.6-3.4-0.6h-6.3v14.5h3.4v-4h2.9c0.1,0,0.1,0,0.2,0l2.8,4h3.6L99.7,23.4C99.7,23.4,99.7,23.4,99.7,23.4z M98.5,17
		c0.5,0.4,0.8,1.1,0.8,1.9c0,0.8-0.3,1.4-0.8,1.9c-0.5,0.4-1.3,0.7-2.3,0.7h-2.7v-5.1h2.7C97.2,16.3,98,16.5,98.5,17z"/>
	<path class="st1" d="M107,8.8c-0.5,0-0.9,0.2-1.3,0.5c-0.3,0.3-0.5,0.7-0.5,1.2c0,0.5,0.2,0.9,0.5,1.3c0.3,0.3,0.7,0.5,1.3,0.5
		c0.5,0,0.9-0.2,1.2-0.5s0.5-0.8,0.5-1.3c0-0.5-0.2-0.9-0.5-1.2C107.9,9,107.5,8.8,107,8.8z"/>
	<rect x="105.3" y="13.6" class="st1" width="3.4" height="14.5"/>
	<path class="st1" d="M111.3,25.5c-0.4,0-0.7,0.1-0.9,0.4c-0.3,0.2-0.4,0.5-0.4,0.9c0,0.4,0.1,0.7,0.4,0.9c0.3,0.2,0.6,0.4,0.9,0.4
		c0.4,0,0.7-0.1,0.9-0.4c0.2-0.2,0.4-0.6,0.4-0.9c0-0.4-0.1-0.7-0.4-0.9C112,25.6,111.7,25.5,111.3,25.5z"/>
	<path class="st1" d="M121,19.3c-0.8-0.4-1.7-0.6-2.7-0.6h-4.2V28h4.2c1,0,1.9-0.2,2.7-0.6c0.8-0.4,1.4-0.9,1.8-1.6
		c0.4-0.7,0.6-1.5,0.6-2.4c0-0.9-0.2-1.8-0.6-2.5C122.4,20.2,121.8,19.6,121,19.3z M120.9,24.8c-0.3,0.4-0.6,0.8-1.1,1
		c-0.5,0.2-1,0.4-1.6,0.4h-2v-5.8h2c0.6,0,1.2,0.1,1.6,0.4c0.5,0.2,0.8,0.6,1.1,1c0.3,0.4,0.4,0.9,0.4,1.5
		C121.3,23.9,121.2,24.4,120.9,24.8z"/>
	<path class="st1" d="M132.6,20.2c-0.3-0.5-0.8-0.9-1.4-1.2c-0.6-0.3-1.3-0.4-2.1-0.4h-4V28h2.1v-2.6h1.9c0.8,0,1.5-0.1,2.1-0.4
		c0.6-0.3,1.1-0.7,1.4-1.2c0.3-0.5,0.5-1.1,0.5-1.8C133.1,21.4,133,20.8,132.6,20.2z M130.5,23.2c-0.3,0.3-0.8,0.4-1.5,0.4h-1.7
		v-3.2h1.7c0.7,0,1.2,0.1,1.5,0.4c0.3,0.3,0.5,0.7,0.5,1.2C131,22.6,130.8,22.9,130.5,23.2z"/>
</g>
</svg>
