<?xml version="1.0" encoding="utf-8"?>
<!-- Generator: Adobe Illustrator 28.3.0, SVG Export Plug-In . SVG Version: 6.00 Build 0)  -->
<svg version="1.1" id="Layer_1" xmlns="http://www.w3.org/2000/svg" xmlns:xlink="http://www.w3.org/1999/xlink" x="0px" y="0px"
	 viewBox="0 0 260.2 75.3" style="enable-background:new 0 0 260.2 75.3;" xml:space="preserve">
<style type="text/css">
	.st0{fill-rule:evenodd;clip-rule:evenodd;fill:#FFFFFF;}
	.st1{fill:#FFFFFF;}
</style>
<g>
	<path class="st0" d="M25.4,17.4c-0.6,0-1.1,0.5-1.1,1.1v17.6c0,0.6,0.5,1.1,1.1,1.1s1.1-0.5,1.1-1.1V18.5
		C26.5,17.9,26,17.4,25.4,17.4z"/>
	<path class="st0" d="M25.4,38.9c-0.6,0-1.1,0.5-1.1,1.1v4.3l0,0.3h0c0.1,0.3,0.3,0.5,0.5,0.7l7.7,4.4c0.2,0.1,0.4,0.2,0.6,0.2
		c0.1,0,0.2,0,0.3,0c0.3-0.1,0.5-0.3,0.7-0.5c0.2-0.3,0.2-0.6,0.1-0.9c-0.1-0.3-0.3-0.5-0.5-0.7l-7.1-4.1v-3.7
		C26.5,39.4,26,38.9,25.4,38.9z"/>
	<path class="st0" d="M29.2,15.2c-0.6,0-1.1,0.5-1.1,1.1v8.8c0,0.1,0,0.2,0,0.3c0.1,0.3,0.3,0.6,0.5,0.8l3.8,2.2
		c0.2,0.1,0.4,0.2,0.6,0.2c0.1,0,0.2,0,0.3,0c0.3-0.1,0.5-0.3,0.7-0.5c0.2-0.3,0.2-0.6,0.1-0.8c-0.1-0.3-0.3-0.5-0.5-0.7l-3.3-1.9
		v-8.2C30.3,15.7,29.8,15.2,29.2,15.2z"/>
	<path class="st0" d="M34.1,22.7v-8.7c0-0.6-0.5-1.1-1.1-1.1c-0.6,0-1.1,0.5-1.1,1.1v8.7c0,0.6,0.5,1.1,1.1,1.1
		C33.6,23.9,34.1,23.4,34.1,22.7z"/>
	<path class="st0" d="M43.4,16.9v12.7c0,0.6,0.5,1.1,1.1,1.1c0.6,0,1.1-0.5,1.1-1.1V16.3c0-0.4-0.2-0.8-0.6-1l-3.8-2.2
		C41,13,40.7,12.9,40.4,13c-0.3,0.1-0.5,0.3-0.7,0.5c-0.3,0.5-0.1,1.2,0.4,1.5l1.7,1l0,0L43.4,16.9z"/>
	<path class="st0" d="M40.1,43.8c-0.3,0.1-0.4,0.4-0.5,0.7c-0.1,0.3,0,0.6,0.1,0.8c0.1,0.3,0.4,0.4,0.7,0.5c0.1,0,0.2,0,0.3,0
		c0.2,0,0.4-0.1,0.6-0.1l3.7-2.2c0.4-0.2,0.6-0.6,0.6-1l0.1-8.1l3.2-1.9c0.4-0.2,0.6-0.6,0.6-1V18.5c0-0.6-0.5-1.1-1.1-1.1
		c-0.6,0-1.1,0.5-1.1,1.1V31L44,32.9c-0.4,0.2-0.6,0.8-0.5,1.2l-0.1,7.9L40.1,43.8z"/>
	<path class="st0" d="M40.7,49.9c0.2,0,0.4,0,0.6-0.2l7.6-4.4c0.4-0.2,0.7-0.6,0.7-1v-8.9c0-0.6-0.5-1.1-1.1-1.1
		c-0.6,0-1.1,0.5-1.1,1.1v8.2l-4.9,2.8l0,0l-2.2,1.3c-0.3,0.2-0.4,0.4-0.5,0.7c-0.1,0.3,0,0.6,0.1,0.8
		C39.9,49.7,40.3,49.9,40.7,49.9z"/>
	<path class="st0" d="M40.7,21.9c-0.6,0-1.1,0.5-1.1,1.1v17.3c0,0.6,0.5,1.1,1.1,1.1c0.6,0,1.1-0.5,1.1-1.1V23
		C41.8,22.4,41.3,21.9,40.7,21.9z"/>
	<path class="st0" d="M26.3,65.2c-0.2-0.1-0.6-0.1-0.8,0l-2.6,1.5c-0.2,0.1-0.6,0.1-0.8,0L7.1,58c-0.2-0.1-0.4-0.4-0.4-0.7l0-38.2
		c0-0.4,0.4-0.8,0.8-0.8h1.8c0.4,0,0.8-0.4,0.8-0.8v-5c0-0.4-0.4-0.8-0.8-0.8H0.8C0.4,11.7,0,12,0,12.5l0,48.6
		c0,0.3,0.2,0.6,0.4,0.7l21.7,12.5c0.2,0.1,0.6,0.1,0.8,0l8.4-4.9c0.5-0.3,0.5-1.1,0-1.4L26.3,65.2z"/>
	<path class="st0" d="M72.4,11.7H64c-0.4,0-0.8,0.4-0.8,0.8v5c0,0.4,0.4,0.8,0.8,0.8h1.8c0.4,0,0.8,0.4,0.8,0.8v38.2
		c0,0.3-0.2,0.6-0.4,0.7l-15,8.7c-0.2,0.1-0.6,0.1-0.8,0L38,59.5l0-12.7c0-0.1,0-0.1,0-0.2v-13c0-0.6-0.5-1.1-1.1-1.1
		c-0.6,0-1.1,0.5-1.1,1.1v11.1l-5.4-3.1V29.2c0-0.6-0.5-1.1-1.1-1.1s-1.1,0.5-1.1,1.1v13.1c0,0.4,0.3,0.8,0.6,1l7,4.1v10.8
		l-14.5-8.4c-0.2-0.1-0.4-0.4-0.4-0.7V8.3c0-0.4,0.4-0.8,0.8-0.8h14.1v21.2l-3,1.7c-0.5,0.1-0.8,0.6-0.8,1.1v8.8
		c0,0.6,0.5,1.1,1.1,1.1c0.6,0,1.1-0.5,1.1-1.1v-8.1l3.2-1.9c0.4-0.2,0.6-0.6,0.6-1v-11l2.2,1.3c0.5,0.3,1.2,0.1,1.5-0.4
		c0.1-0.3,0.2-0.6,0.1-0.8c-0.1-0.3-0.3-0.5-0.5-0.7L38,15.8V7.5h6.8h1.8h5c0.4,0,0.8,0.4,0.8,0.8v40.8c0,0.3-0.2,0.6-0.4,0.7
		l-10.2,5.9c-0.5,0.3-0.5,1.1,0,1.4l5,2.9c0.2,0.1,0.6,0.1,0.8,0l11-6.3c0.2-0.1,0.4-0.4,0.4-0.7c0-12.4,0-38.7,0-51.3
		c0-0.4-0.4-0.8-0.8-0.8H46.6h-1.8H15c-0.4,0-0.8,0.3-0.8,0.8c0,12.7,0,38.9,0,51.3c0,0.3,0.2,0.5,0.4,0.7l35.8,20.7
		c0.2,0.1,0.6,0.1,0.8,0l21.7-12.5c0.2-0.1,0.4-0.4,0.4-0.7V12.5C73.2,12,72.9,11.7,72.4,11.7z"/>
</g>
<g>
	<polygon class="st1" points="101.4,45.2 91.6,22.3 83.6,22.3 97.5,54.4 104.8,54.4 118.7,22.3 111.3,22.3 	"/>
	<polygon class="st1" points="128.8,41 143.7,41 143.7,35.2 128.8,35.2 128.8,28.2 145.6,28.2 145.6,22.3 121.4,22.3 121.4,54.4 
		146.2,54.4 146.2,48.4 128.8,48.4 	"/>
	<path class="st1" d="M173.5,44.1c2.1-0.9,3.7-2.2,4.8-4c1.1-1.7,1.7-3.8,1.7-6.2c0-2.4-0.6-4.5-1.7-6.2c-1.1-1.7-2.7-3.1-4.8-4
		c-2.1-0.9-4.6-1.4-7.4-1.4h-13.9v32.1h7.4v-8.9h6.5c0.1,0,0.2,0,0.3,0l6.2,9h8L173.5,44.1C173.4,44.1,173.5,44.1,173.5,44.1z
		 M170.8,29.8c1.1,1,1.7,2.4,1.7,4.1c0,1.7-0.6,3.1-1.7,4.1c-1.1,1-2.8,1.5-5.1,1.5h-6.1V28.3h6.1C167.9,28.3,169.7,28.8,170.8,29.8
		z"/>
	<path class="st1" d="M189.6,11.7c-1.1,0-2.1,0.4-2.8,1.1c-0.7,0.7-1.1,1.7-1.1,2.8c0,1.1,0.4,2.1,1.1,2.8c0.7,0.7,1.6,1.1,2.8,1.1
		c1.1,0,2-0.4,2.8-1.1c0.7-0.7,1.1-1.7,1.1-2.8c0-1.1-0.4-2-1.1-2.8C191.6,12,190.7,11.7,189.6,11.7z"/>
	<rect x="185.9" y="22.3" class="st1" width="7.4" height="32.1"/>
	<path class="st1" d="M199.2,48.7c-0.8,0-1.5,0.3-2,0.8c-0.6,0.5-0.8,1.2-0.8,2c0,0.8,0.3,1.5,0.8,2.1c0.6,0.5,1.2,0.8,2,0.8
		c0.8,0,1.5-0.3,2-0.8c0.5-0.5,0.8-1.2,0.8-2.1c0-0.8-0.3-1.5-0.8-2C200.7,48.9,200,48.7,199.2,48.7z"/>
	<path class="st1" d="M220.7,34.9c-1.7-0.9-3.7-1.3-5.9-1.3h-9.3v20.6h9.3c2.2,0,4.2-0.4,5.9-1.3c1.7-0.9,3-2,4-3.6
		c1-1.5,1.4-3.3,1.4-5.4c0-2.1-0.5-3.9-1.4-5.4C223.7,36.9,222.4,35.7,220.7,34.9z M220.5,47.2c-0.6,1-1.3,1.7-2.3,2.2
		c-1,0.5-2.2,0.8-3.6,0.8h-4.3V37.5h4.3c1.4,0,2.6,0.3,3.6,0.8c1,0.5,1.8,1.3,2.3,2.2s0.8,2.1,0.8,3.4
		C221.3,45.2,221.1,46.3,220.5,47.2z"/>
	<path class="st1" d="M246.5,37c-0.7-1.1-1.8-2-3.1-2.6c-1.3-0.6-2.9-0.9-4.8-0.9h-8.9v20.6h4.8v-5.7h4.1c1.8,0,3.4-0.3,4.8-0.9
		c1.3-0.6,2.4-1.5,3.1-2.6c0.7-1.1,1.1-2.4,1.1-4C247.6,39.5,247.2,38.2,246.5,37z M241.7,43.7c-0.7,0.6-1.8,0.9-3.3,0.9h-3.9v-7.1
		h3.9c1.5,0,2.6,0.3,3.3,0.9c0.7,0.6,1.1,1.5,1.1,2.6C242.7,42.2,242.4,43,241.7,43.7z"/>
</g>
</svg>
