<?xml version="1.0" encoding="utf-8"?>
<!-- Generator: Adobe Illustrator 28.3.0, SVG Export Plug-In . SVG Version: 6.00 Build 0)  -->
<svg version="1.1" id="Layer_1" xmlns="http://www.w3.org/2000/svg" xmlns:xlink="http://www.w3.org/1999/xlink" x="0px" y="0px"
	 viewBox="0 0 235.4 191.4" style="enable-background:new 0 0 235.4 191.4;" xml:space="preserve">
<style type="text/css">
	.st0{fill-rule:evenodd;clip-rule:evenodd;fill:#FFFFFF;}
	.st1{fill:#FFFFFF;}
</style>
<g>
	<g>
		<path class="st0" d="M99.2,28.8c-1,0-1.8,0.8-1.8,1.8v28.8c0,1,0.8,1.8,1.8,1.8s1.8-0.8,1.8-1.8V30.6
			C101.1,29.6,100.3,28.8,99.2,28.8z"/>
		<path class="st0" d="M99.2,64.1c-1,0-1.8,0.8-1.8,1.8V73l0,0.5h0.1c0.1,0.5,0.4,0.9,0.9,1.1l12.6,7.3c0.3,0.2,0.6,0.2,0.9,0.2
			c0.2,0,0.3,0,0.5-0.1c0.5-0.1,0.9-0.4,1.1-0.9c0.2-0.4,0.3-0.9,0.2-1.4c-0.1-0.5-0.4-0.9-0.9-1.1l-11.6-6.7v-6
			C101.1,64.9,100.3,64.1,99.2,64.1z"/>
		<path class="st0" d="M105.5,25.1c-1,0-1.8,0.8-1.8,1.8v14.4c0,0.2,0,0.3,0.1,0.4c0.1,0.5,0.4,1,0.9,1.3l6.3,3.6
			c0.3,0.2,0.6,0.2,0.9,0.2c0.2,0,0.3,0,0.5-0.1c0.5-0.1,0.9-0.4,1.1-0.9c0.2-0.4,0.3-0.9,0.2-1.4c-0.1-0.5-0.4-0.9-0.9-1.1
			l-5.4-3.1V27C107.4,26,106.5,25.1,105.5,25.1z"/>
		<path class="st0" d="M113.6,37.5V23.4c0-1-0.8-1.8-1.8-1.8c-1,0-1.8,0.8-1.8,1.8v14.2c0,1,0.8,1.8,1.8,1.8
			C112.8,39.4,113.6,38.6,113.6,37.5z"/>
		<path class="st0" d="M128.8,28v20.9c0,1,0.8,1.8,1.8,1.8c1,0,1.8-0.8,1.8-1.8V27c0-0.7-0.4-1.3-1-1.6l-6.2-3.6
			c-0.4-0.2-0.9-0.3-1.4-0.2c-0.5,0.1-0.9,0.4-1.1,0.9c-0.5,0.9-0.2,2,0.7,2.5l2.7,1.6l0,0L128.8,28z"/>
		<path class="st0" d="M123.5,72c-0.4,0.2-0.7,0.6-0.9,1.1c-0.1,0.5-0.1,1,0.2,1.4c0.2,0.4,0.6,0.7,1.1,0.9c0.2,0,0.3,0.1,0.5,0.1
			c0.3,0,0.6-0.1,0.9-0.2l6.1-3.5c0.6-0.3,1-0.9,1-1.6l0.1-13.2l5.3-3c0.6-0.3,1-1,1-1.7V30.6c0-1-0.8-1.8-1.8-1.8s-1.8,0.8-1.8,1.8
			V51l-5.4,3.1c-0.7,0.4-1.1,1.2-0.9,1.9l-0.1,12.9L123.5,72z"/>
		<path class="st0" d="M124.4,82.1c0.3,0,0.6-0.1,0.9-0.2l12.4-7.2c0.7-0.3,1.1-1,1.1-1.7V58.5c0-1-0.8-1.8-1.8-1.8
			s-1.8,0.8-1.8,1.8v13.5l-8.1,4.7l0,0l-3.6,2.1c-0.4,0.2-0.7,0.6-0.9,1.1c-0.1,0.5-0.1,1,0.2,1.4C123.1,81.8,123.7,82.1,124.4,82.1
			z"/>
		<path class="st0" d="M124.4,36.2c-1,0-1.8,0.8-1.8,1.8v28.3c0,1,0.8,1.8,1.8,1.8c1,0,1.8-0.8,1.8-1.8V38
			C126.2,37,125.4,36.2,124.4,36.2z"/>
		<path class="st0" d="M100.9,107c-0.4-0.2-0.9-0.2-1.3,0l-4.3,2.5c-0.4,0.2-0.9,0.2-1.3,0L69.3,95.2c-0.4-0.2-0.7-0.7-0.7-1.1
			l0-62.5c0-0.7,0.6-1.3,1.3-1.3h2.9c0.7,0,1.3-0.6,1.3-1.3v-8.2c0-0.7-0.6-1.3-1.3-1.3H59.1c-0.7,0-1.3,0.6-1.3,1.3l0,79.6
			c0,0.5,0.3,0.9,0.7,1.1L93.9,122c0.4,0.2,0.9,0.2,1.3,0l13.8-8c0.9-0.5,0.9-1.8,0-2.3L100.9,107z"/>
		<path class="st0" d="M176.3,19.4h-13.8c-0.7,0-1.3,0.6-1.3,1.3V29c0,0.7,0.6,1.3,1.3,1.3h3c0.7,0,1.3,0.6,1.3,1.3v62.5
			c0,0.5-0.3,0.9-0.7,1.1l-24.6,14.2c-0.4,0.2-0.9,0.2-1.3,0l-20.2-11.7l0-20.8c0-0.1,0-0.2,0-0.3V55.4c0-1-0.8-1.8-1.8-1.8
			c-1,0-1.8,0.8-1.8,1.8v18.2l-8.9-5.1V48.1c0-1-0.8-1.8-1.8-1.8c-1,0-1.8,0.8-1.8,1.8v21.5c0,0.7,0.4,1.4,1,1.7l11.5,6.7v17.8
			L92.5,81.9c-0.4-0.2-0.7-0.7-0.7-1.1V14c0-0.7,0.6-1.3,1.3-1.3h23.1v34.8l-4.9,2.8c-0.8,0.2-1.4,0.9-1.4,1.8v14.4
			c0,1,0.8,1.8,1.8,1.8c1,0,1.8-0.8,1.8-1.8V53.1l5.2-3c0.6-0.3,1-1,1-1.7v-18l3.6,2.1c0.9,0.5,2,0.2,2.5-0.7
			c0.2-0.4,0.3-0.9,0.2-1.4c-0.1-0.5-0.4-0.9-0.9-1.1l-5.4-3.1V12.6h11.2h2.9h8.3c0.7,0,1.3,0.6,1.3,1.3v66.8c0,0.5-0.3,0.9-0.7,1.1
			l-16.6,9.6c-0.9,0.5-0.9,1.8,0,2.3l8.2,4.7c0.4,0.2,0.9,0.2,1.3,0l17.9-10.4c0.4-0.2,0.7-0.7,0.7-1.1c0-20.3,0-63.3,0-84
			c0-0.7-0.6-1.3-1.3-1.3h-19.1h-2.9H82.2c-0.7,0-1.3,0.6-1.3,1.3c0,20.7,0,63.7,0,84c0,0.5,0.3,0.9,0.7,1.1l58.6,33.8
			c0.4,0.2,0.9,0.2,1.3,0l35.4-20.5c0.4-0.2,0.7-0.7,0.7-1.1V20.7C177.6,20,177,19.4,176.3,19.4z"/>
	</g>
	<g>
		<polygon class="st1" points="46.1,164 35.2,138.5 26.3,138.5 41.7,174.3 49.9,174.3 65.4,138.5 57.2,138.5 		"/>
		<polygon class="st1" points="76.6,159.3 93.3,159.3 93.3,152.9 76.6,152.9 76.6,145.1 95.5,145.1 95.5,138.5 68.4,138.5 
			68.4,174.3 96.1,174.3 96.1,167.6 76.6,167.6 		"/>
		<path class="st1" d="M126.5,162.8c2.3-1,4.1-2.5,5.4-4.4c1.3-1.9,1.9-4.2,1.9-6.9c0-2.7-0.6-5-1.9-7c-1.3-1.9-3.1-3.4-5.4-4.5
			c-2.3-1-5.1-1.6-8.3-1.6h-15.5v35.8h8.3v-10h7.2c0.1,0,0.3,0,0.4,0l6.9,10h9L126.5,162.8C126.5,162.8,126.5,162.8,126.5,162.8z
			 M123.5,146.8c1.3,1.1,1.9,2.6,1.9,4.6c0,1.9-0.6,3.5-1.9,4.6c-1.3,1.1-3.2,1.7-5.7,1.7H111v-12.5h6.8
			C120.3,145.2,122.2,145.8,123.5,146.8z"/>
		<path class="st1" d="M144.5,126.6c-1.3,0-2.3,0.4-3.1,1.2c-0.8,0.8-1.2,1.8-1.2,3.1c0,1.3,0.4,2.3,1.2,3.1
			c0.8,0.8,1.8,1.2,3.1,1.2c1.2,0,2.3-0.4,3.1-1.2c0.8-0.8,1.2-1.9,1.2-3.1c0-1.2-0.4-2.3-1.2-3.1
			C146.7,127,145.7,126.6,144.5,126.6z"/>
		<rect x="140.3" y="138.5" class="st1" width="8.3" height="35.8"/>
		<path class="st1" d="M155.2,167.9c-0.9,0-1.6,0.3-2.2,0.9c-0.6,0.6-0.9,1.3-0.9,2.3c0,0.9,0.3,1.7,0.9,2.3s1.4,0.9,2.2,0.9
			c0.9,0,1.6-0.3,2.3-0.9c0.6-0.6,0.9-1.4,0.9-2.3c0-0.9-0.3-1.7-0.9-2.3C156.8,168.2,156.1,167.9,155.2,167.9z"/>
		<path class="st1" d="M179.2,152.5c-1.9-1-4.1-1.4-6.6-1.4h-10.4V174h10.4c2.5,0,4.7-0.5,6.6-1.4c1.9-1,3.4-2.3,4.5-4
			c1.1-1.7,1.6-3.7,1.6-6c0-2.3-0.5-4.4-1.6-6.1C182.6,154.8,181.1,153.4,179.2,152.5z M178.9,166.3c-0.6,1.1-1.5,1.9-2.6,2.5
			c-1.1,0.6-2.5,0.9-4,0.9h-4.8v-14.2h4.8c1.5,0,2.9,0.3,4,0.9c1.1,0.6,2,1.4,2.6,2.5c0.6,1.1,0.9,2.3,0.9,3.8
			C179.9,164,179.6,165.2,178.9,166.3z"/>
		<path class="st1" d="M207.9,154.9c-0.8-1.2-2-2.2-3.4-2.9c-1.5-0.7-3.3-1-5.3-1h-9.9V174h5.3v-6.3h4.6c2.1,0,3.8-0.3,5.3-1
			c1.5-0.7,2.6-1.6,3.4-2.9c0.8-1.2,1.2-2.7,1.2-4.4C209.1,157.7,208.7,156.2,207.9,154.9z M202.5,162.3c-0.8,0.7-2,1-3.7,1h-4.3v-8
			h4.3c1.6,0,2.9,0.3,3.7,1c0.8,0.7,1.2,1.7,1.2,2.9C203.8,160.6,203.4,161.6,202.5,162.3z"/>
	</g>
</g>
</svg>
