<?xml version="1.0" encoding="UTF-8"?>
<svg id="Layer_1" data-name="Layer 1" xmlns="http://www.w3.org/2000/svg" version="1.1" viewBox="0 0 512 512">
  <defs>
    <style>
      .cls-1 {
        fill: #20150b;
        stroke-width: 0px;
      }
    </style>
  </defs>
  <g id="NewGroupe16">
    <g id="NewGroup1-3">
      <g>
        <path class="cls-1" d="M195.4,147.6c6.7,2.9,12.5,7.6,16.6,13.7,4.1,6,6.4,13.2,6.4,21,0,5.2-1.1,10.2-3,14.7-2.9,6.7-7.6,12.5-13.7,16.6-6,4.1-13.2,6.4-21,6.4-5.2,0-10.2-1.1-14.7-3-6.7-2.9-12.5-7.6-16.6-13.6-4.1-6-6.4-13.2-6.4-21,0-5.2,1.1-10.2,3-14.7,2.9-6.7,7.6-12.5,13.6-16.6,6-4.1,13.2-6.4,21-6.4,5.2,0,10.2,1.1,14.7,3h0ZM138.2,153.6c-5.5,8.2-8.8,18.1-8.8,28.7,0,7.1,1.4,13.8,4,20,3.9,9.2,10.4,17,18.6,22.6,8.2,5.5,18.1,8.8,28.7,8.8,7.1,0,13.8-1.4,20-4,9.2-3.9,17-10.4,22.6-18.6,5.5-8.2,8.8-18.1,8.8-28.7,0-7.1-1.4-13.8-4-20-3.9-9.2-10.4-17-18.6-22.6-8.2-5.5-18.1-8.8-28.7-8.8-7.1,0-13.8,1.4-20,4-9.2,3.9-17,10.4-22.6,18.6h0Z"/>
        <polygon class="cls-1" points="257.8 27.7 257.8 27.7 257.8 27.7 257.8 27.7 257.8 27.7"/>
        <path class="cls-1" d="M242,264.7c3.2,4.8,5,10.4,5,16.5,0,1.1,0,2.3-.2,3.5l-12.3,65.3v.4c-.5,3.8-1.7,7.2-3.3,10.4-2.5,4.7-6.3,8.7-10.8,11.5-4.5,2.8-9.8,4.3-15.5,4.3h-48.2c-3.8,0-7.4-.7-10.7-2-5-1.9-9.4-5.2-12.7-9.4-3.3-4.2-5.5-9.2-6.2-14.9v-.4c0,0-12.4-65.3-12.4-65.3-.1-1.2-.2-2.3-.2-3.5,0-4,.8-7.9,2.3-11.4,2.2-5.3,6-9.9,10.7-13.1,4.8-3.2,10.5-5.1,16.7-5.1h11.8c.1.7.2,1.4.4,2.1.6,2.6,1.4,5.5,2.9,8.4.7,1.4,1.7,2.9,2.9,4.2,1.2,1.3,2.7,2.6,4.4,3.6,0,0,.3.2.6.4.5.4,1.3.9,2,1.5.6.5,1.1,1,1.6,1.5.4.3.7.7,1,1l-13.4,33.9c-.1.4-.2.7-.3,1.1-.2,1.1-.3,2.1-.3,3.2,0,3,.9,5.9,2.6,8.5h0s9,13.5,9,13.5c1.3,2,3.1,3.5,5.1,4.5,2,1,4.1,1.5,6.2,1.5,2.1,0,4.3-.5,6.2-1.5,2-1,3.7-2.6,5-4.5l9-13.5h0c1.7-2.5,2.6-5.5,2.6-8.5,0-1.1-.1-2.1-.3-3.2-.1-.6-.3-1-.5-1.5l-15.5-32.4c0,0,.2-.2.3-.2,1.2-1,2.8-2.2,4.2-3.1.7-.5,1.4-.9,1.9-1.2.5-.3,1-.6,1.2-.7h0c1.6-.9,2.9-2,4-3.1,1.9-2.1,3.2-4.4,4.2-6.6,1.3-3,2-6,2.4-8.6h12c4.2,0,8.1.8,11.7,2.4,5.3,2.3,9.9,6.1,13.1,10.8h0ZM189.8,312.4c0,.3,0,.5-.3.8l-8.9,13.4-8.9-13.4h0c-.2-.3-.3-.6-.3-.9l8.3-21,10.1,21.2h0ZM199.1,237.8c-3.7,0-6.7,3-6.8,6.7,0,.4,0,1.5-.2,2.9-.1,1-.3,2.2-.5,3.4-.4,1.8-1,3.7-1.6,5-.3.7-.7,1.2-1,1.5-.3.3-.5.5-.7.6-.5.3-1,.5-1.5.9-1.7,1.1-4.1,2.6-6.4,4.5-.9-.9-1.9-1.7-2.8-2.5-.7-.6-1.5-1.1-2.2-1.6-.7-.5-1.3-.9-2-1.3-.2,0-.4-.2-.6-.5-.5-.5-1-1.4-1.5-2.5-.8-1.8-1.3-4.1-1.6-6.1-.3-2-.4-3.7-.4-4.2,0-3.7-3.1-6.7-6.8-6.7h-18c-6,0-11.8,1.2-17,3.5-7.8,3.3-14.4,8.9-19,15.8-4.6,6.9-7.3,15.2-7.3,24.1,0,1.7.1,3.5.3,5.3v.4c0,0,12.4,65.5,12.4,65.5,1.4,10.7,6.6,20.2,14.2,26.9,7.7,6.8,17.8,10.9,28.8,10.9h48.2c11,0,21.1-4.1,28.8-10.9,3.8-3.4,7.1-7.5,9.5-12.1,2.4-4.5,4-9.5,4.7-14.8l12.4-65.5v-.4c.3-1.8.4-3.5.4-5.3,0-5.9-1.2-11.6-3.4-16.7-3.3-7.8-8.7-14.4-15.6-19.1-6.9-4.7-15.3-7.5-24.4-7.5h-18.2Z"/>
        <polygon class="cls-1" points="270.3 286.5 270.3 286.5 270.3 286.5 270.3 286.5 270.3 286.5"/>
        <path class="cls-1" d="M376.6,259.7v-3.7c0-1.8-.7-3.6-2-4.8-1.3-1.3-3-2-4.8-2h-82.6c-.6,0-1.2-.1-1.8-.4-.8-.3-1.5-.9-2-1.7-.5-.7-.8-1.6-.8-2.5,0-.6.1-1.2.4-1.8.3-.8.9-1.5,1.7-2,.7-.5,1.6-.8,2.5-.8h82.6c1.8,0,3.6-.7,4.8-2s2-3,2-4.8v-4.4l26.7,15.4-26.7,15.4h0ZM418.5,249.5c.9-1.6,1.3-3.4,1.3-5.2,0-1.8-.4-3.6-1.3-5.2-.9-1.6-2.3-3.1-4-4.1l-35.4-20.4h0c-1.7-1-3.6-1.4-5.4-1.4-1.4,0-2.8.3-4,.8-1.9.8-3.5,2.1-4.7,3.8-.6.9-1.1,1.8-1.4,2.9-.3,1-.5,2.2-.5,3.3v2.6h-75.8c-2.5,0-4.9.5-7.1,1.4-3.3,1.4-6,3.7-8,6.6-2,2.9-3.1,6.4-3.1,10.2,0,2.5.5,4.9,1.4,7.1,1.4,3.3,3.7,6,6.6,8,2.9,2,6.4,3.1,10.2,3.1h75.8v1.9c0,1.5.3,3,.9,4.3.9,2,2.3,3.6,4,4.7,1.7,1.1,3.7,1.7,5.8,1.7,1.8,0,3.7-.5,5.4-1.4l35.4-20.4h0c1.7-1,3.1-2.4,4-4.1h0Z"/>
        <path class="cls-1" d="M285.5,297.5c-.9-.4-1.6-1-2.1-1.7-.5-.7-.8-1.6-.8-2.5,0-.6.1-1.1.3-1.7h0c.4-.9,1-1.6,1.7-2.1.7-.5,1.6-.8,2.5-.8.6,0,1.1.1,1.7.3h0s81.8,32.9,81.8,32.9c1.7.7,3.6.7,5.3,0,1.7-.7,3-2.1,3.6-3.8l1.4-3.5,19.3,24-30.4,4.7,1.5-4c1.3-3.5-.4-7.4-3.8-8.8l-82.1-33h0ZM364.8,344.1h0s0,0,0,0h0ZM355.4,351.1c.8,1.9,2.1,3.5,3.8,4.7,1.7,1.2,3.8,1.9,6.1,1.9.5,0,1.1,0,1.7-.1h0s40.4-6.3,40.4-6.3h0c1.3-.2,2.6-.7,3.8-1.3,1.7-1,3-2.4,3.9-4,.9-1.6,1.4-3.4,1.4-5.3,0-1.2-.2-2.3-.6-3.5-.4-1.1-1-2.2-1.8-3.2l-25.6-31.9h0c-1-1.3-2.4-2.3-3.8-3-1.5-.7-3-1-4.5-1-2.1,0-4.1.6-5.9,1.8-.9.6-1.7,1.3-2.4,2.2-.7.9-1.3,1.9-1.7,2.9l-.7,1.8-75.4-30.3h0c-2.2-.9-4.5-1.3-6.8-1.3-3.6,0-7.1,1.1-10.1,3-3,2-5.4,4.8-6.8,8.4-.9,2.2-1.3,4.5-1.3,6.8,0,3.6,1.1,7.1,3,10.1,2,3,4.8,5.4,8.4,6.8l75.8,30.5-.9,2.4h0c-.5,1.3-.7,2.6-.7,3.9,0,1.5.3,2.9.8,4.1h0Z"/>
        <path class="cls-1" d="M277.3,193.4c.5-.7,1.2-1.3,2.1-1.7h0s82.1-33,82.1-33c3.5-1.4,5.2-5.3,3.8-8.8l-1.5-4,30.4,4.7-19.3,24-1.4-3.5c-.7-1.7-2-3.1-3.6-3.8-1.7-.7-3.6-.8-5.3,0l-81.8,32.9c-.6.2-1.1.3-1.7.3-.9,0-1.8-.3-2.5-.8-.7-.5-1.3-1.2-1.7-2.1h0c-.2-.6-.3-1.1-.3-1.7,0-.9.3-1.8.8-2.5h0ZM397.3,146.8h0s0,0,0,0h0ZM265.9,185.9c-2,3-3,6.4-3,10.1,0,2.3.4,4.6,1.3,6.8,1.4,3.5,3.9,6.4,6.8,8.4,3,2,6.5,3,10.1,3,2.3,0,4.6-.4,6.8-1.3l75.4-30.3.7,1.8c.4,1.1,1,2.1,1.7,2.9,1.1,1.3,2.4,2.3,3.8,2.9,1.4.7,3,1,4.5,1,1.5,0,3.1-.3,4.5-1,1.4-.7,2.8-1.7,3.8-3l25.6-31.9h0c.8-1,1.4-2.1,1.8-3.2.4-1.1.6-2.3.6-3.5,0-2.5-.9-4.9-2.4-6.8-.8-1-1.8-1.8-2.9-2.5-1.1-.7-2.4-1.1-3.8-1.3l-40.4-6.3h0c-.6,0-1.1-.1-1.7-.1-1.5,0-2.9.3-4.2.9-1.9.8-3.5,2.2-4.7,3.9-1.1,1.7-1.8,3.7-1.8,5.9,0,1.3.2,2.6.7,3.9l.9,2.4-75.8,30.5h0c-3.5,1.4-6.4,3.9-8.4,6.8h0Z"/>
        <path class="cls-1" d="M483.4,131.2c0-3.5-1.2-6.8-3.3-9.4-1.1-1.3-2.3-2.4-3.8-3.3-1.5-.9-3.1-1.5-4.9-1.8-14.2-2.4-51.6-9.6-92-24.9-20.2-7.6-41.3-17.3-60.6-29.3-19.3-12-36.9-26.4-50.3-43.3h0c0,0-.1-.2-.2-.2-1.5-1.9-3.5-3.5-5.6-4.5-2.1-1-4.4-1.5-6.7-1.5-2.4,0-4.8.6-7,1.7-2.1,1.1-4,2.6-5.5,4.6h0c-8.9,11.1-19.5,21.2-31.2,30.1-3,2.3-3.6,6.6-1.3,9.6,2.3,3,6.6,3.6,9.6,1.3,12.5-9.5,23.9-20.3,33.6-32.5l.2-.2c.3-.4.5-.6.8-.7.3-.1.5-.2.8-.2.3,0,.5,0,.8.2.3.1.5.3.8.7,0,0,.1.2.2.3,14.7,18.5,33.5,33.8,53.8,46.4,30.4,18.9,64.2,31.9,93.2,40.8,29,8.8,53.2,13.4,64.3,15.3h.2c0,.1.2.2.3.4,0,.2.2.4.2.7v85.2c0,40-10,75.1-25.7,105.8-11.8,23-26.9,43.6-43.5,61.7-24.9,27.2-53.2,48.9-78.7,65.3-25.5,16.4-48.2,27.6-61.8,33.7h0c-1.5.7-2.9,1.3-4.1,1.8-1.3-.5-2.6-1.2-4.1-1.8h0c-12.1-5.4-31.4-14.8-53.4-28.4-33.1-20.3-72.3-50-103.1-89.5-15.4-19.7-28.7-41.9-38.1-66.6-9.4-24.7-15-51.9-15-81.9v-85.2c0-.4.1-.7.3-.8,0,0,.1-.1.2-.2h.2c2-.4,4.5-.9,7.5-1.5,10.4-2.2,26.8-6.2,45.2-11.3,18.4-5.2,38.8-11.6,57.3-18.6,3.5-1.3,5.3-5.3,3.9-8.8-1.3-3.5-5.3-5.3-8.8-3.9h0c-20.5,7.8-43.8,14.9-63.7,20.3-10,2.7-19.1,5-26.7,6.8-3.8.9-7.1,1.6-10,2.2-2.9.6-5.2,1.1-6.9,1.3-1.8.3-3.4.9-4.9,1.8-2.2,1.3-4,3.2-5.2,5.4-1.2,2.2-1.9,4.7-1.9,7.4v85.2c0,42.3,10.6,79.6,27.2,112,12.5,24.3,28.3,45.8,45.6,64.7,25.9,28.3,55.1,50.7,81.3,67.6,26.2,16.9,49.5,28.3,63.6,34.7h0c2.7,1.2,5.1,2.2,7.1,3.1.8.4,1.7.5,2.7.5h0c.9,0,1.8-.2,2.7-.5,2-.8,4.3-1.9,7-3.1h0c12.5-5.6,32.3-15.3,55-29.2,34-20.9,74.5-51.5,106.7-92.8,16.1-20.6,30.1-44,40.1-70.2,10-26.1,15.9-55.1,15.9-86.8v-85.2h0Z"/>
        <path class="cls-1" d="M191,74.7c0-3.8-3.1-6.8-6.8-6.8s-6.8,3.1-6.8,6.8,3.1,6.8,6.8,6.8,6.8-3.1,6.8-6.8h0Z"/>
      </g>
    </g>
  </g>
</svg>