<?xml version="1.0" encoding="UTF-8"?>
<svg id="Layer_1" data-name="Layer 1" xmlns="http://www.w3.org/2000/svg" version="1.1" viewBox="0 0 512 512">
  <defs>
    <style>
      .cls-1 {
        fill: #20150b;
        stroke-width: 0px;
      }
    </style>
  </defs>
  <g id="NewGroupe11">
    <g id="NewGroup1-8">
      <g>
        <path class="cls-1" d="M175.4,402.4c-.4.8-1.1,1.5-2,2-2.2,1.4-3.5,3.9-3.3,6.6l1.8,24.7h0c0,0,0,0,0,.2,0,.1-.2.4-.7.6-.4.2-1,.4-1.8.4-1.1,0-1.8-.4-2.1-.7-.2-.2-.3-.3-.3-.4,0,0,0,0,0-.1h0s1.8-24.7,1.8-24.7c.2-2.6-1.1-5.2-3.3-6.6-.9-.6-1.6-1.3-2-2-.4-.8-.7-1.5-.7-2.4,0-.7.1-1.4.4-2,.4-.9,1.2-1.9,2.3-2.5,1.1-.7,2.4-1.1,4-1.1,2,0,3.8.8,4.9,1.8.6.5,1,1.2,1.3,1.8.3.6.4,1.3.4,2,0,.9-.2,1.7-.7,2.4h0ZM180.9,383.3c-3.3-2.1-7.3-3.3-11.5-3.3-5.6,0-10.8,2.1-14.6,5.6-1.9,1.8-3.5,3.9-4.6,6.3-1.1,2.4-1.7,5.1-1.7,7.9,0,3.5,1,6.8,2.6,9.6.9,1.5,1.9,2.8,3.1,4l-1.5,21h0c0,.3,0,.7,0,1,0,2.2.5,4.4,1.4,6.3,1.4,2.9,3.6,5.2,6.3,6.7,2.7,1.6,5.8,2.4,9.1,2.4,4.4,0,8.5-1.5,11.6-4.3,1.5-1.4,2.8-3,3.8-4.9.9-1.9,1.4-4.1,1.4-6.3,0-.3,0-.7,0-1h0s-1.5-21-1.5-21c1.2-1.2,2.3-2.6,3.1-4,1.7-2.8,2.6-6.1,2.6-9.6,0-2.8-.6-5.5-1.7-7.9-1.7-3.6-4.4-6.6-7.7-8.7h0Z"/>
        <path class="cls-1" d="M344.9,400.7c.2-1.5.6-2.9,1.2-4.2,1-1.9,2.4-3.4,4.2-4.5,1.8-1.1,3.8-1.7,5.9-1.7,1.2,0,2.5.2,3.8.7h0s68.4,24,68.4,24l-92,69.4,8.4-83.7h0ZM81.1,7.5c-5.8,2.4-10.7,6.5-14.1,11.6-3.5,5.1-5.5,11.4-5.5,18v438.9c0,4.3.9,8.4,2.4,12.1,2.4,5.6,6.3,10.3,11.2,13.6,4.9,3.3,10.9,5.3,17.3,5.3h235.3c0,0,.1,0,.2,0,.1,0,.2,0,.4,0,.1,0,.2,0,.3,0,.1,0,.2,0,.4,0,.1,0,.2,0,.3,0,.1,0,.2,0,.4,0,0,0,.2,0,.3,0,.1,0,.2,0,.4-.1,0,0,.2,0,.3-.1.1,0,.2-.1.4-.2,0,0,.2,0,.3-.1.1,0,.2-.1.3-.2,0,0,.2-.1.3-.2,0,0,.2-.1.3-.2l115.7-87.2c.1,0,.3-.2.4-.3,0,0,.1,0,.2-.1.2-.2.4-.4.6-.6,0,0,0,0,0,0,.2-.2.3-.4.4-.6,0,0,0-.1.1-.2.1-.2.2-.3.3-.5,0,0,0-.1.1-.2,0-.2.2-.3.2-.5,0,0,0-.1,0-.2,0-.2.1-.4.2-.6,0,0,0,0,0-.1,0-.3.1-.5.1-.8,0,0,0-.1,0-.2,0-.2,0-.4,0-.6,0,0,0,0,0-.1v-61.4c0-3.9-3.2-7.1-7.1-7.1s-7.1,3.2-7.1,7.1v51.3l-71.5-25h0c-2.8-1-5.7-1.5-8.5-1.5-6.4,0-12.4,2.4-17.1,6.5-2.3,2-4.3,4.5-5.7,7.3-1.5,2.8-2.4,6-2.8,9.3l-9.4,93.5H92.5c-2.3,0-4.5-.5-6.5-1.3-3-1.3-5.6-3.4-7.4-6.1-1.8-2.7-2.8-5.9-2.9-9.3V37.1c0-2.5.5-4.8,1.4-7,1.3-3.2,3.6-5.9,6.5-7.9,2.9-1.9,6.3-3,10-3h324.8c2.5,0,4.8.5,7,1.4,3.2,1.4,5.9,3.6,7.9,6.5,1.9,2.9,3,6.3,3,10v235.6c0,3.9,3.2,7.1,7.1,7.1s7.1-3.2,7.1-7.1h0V37.1c0-4.4-.9-8.7-2.5-12.5-2.4-5.8-6.5-10.7-11.6-14.1-5.1-3.5-11.4-5.5-18-5.5H93.6c-4.4,0-8.7.9-12.5,2.5h0Z"/>
        <path class="cls-1" d="M251.1,46c2.1-3.1,5.5-4.9,9.2-4.9,3.7,0,7.1,1.8,9.2,4.9l59.6,87.7c1.3,1.9,1.9,4.1,1.9,6.3,0,1.8-.4,3.6-1.3,5.2h0c-1,1.8-2.4,3.3-4.1,4.3-1.7,1-3.7,1.6-5.8,1.6h-119.2c-2.1,0-4.1-.6-5.8-1.6-1.7-1-3.1-2.5-4.1-4.3-.9-1.7-1.3-3.4-1.3-5.2,0-2.2.6-4.4,1.9-6.3h0s59.6-87.7,59.6-87.7h0ZM178.2,152c2.2,4.2,5.5,7.6,9.4,9.9,3.9,2.3,8.4,3.6,13.1,3.6h119.2c4.7,0,9.2-1.3,13.1-3.6,3.9-2.3,7.2-5.7,9.4-9.9h0c2-3.7,3-7.8,3-11.9,0-5-1.5-10-4.4-14.3l-59.6-87.7c-4.7-7-12.6-11.2-21.1-11.1-8.4,0-16.3,4.2-21.1,11.1l-59.6,87.7h0c-2.9,4.3-4.4,9.3-4.4,14.3,0,4.1,1,8.2,3,11.9h0Z"/>
        <path class="cls-1" d="M229.6,381.4v70.9c0,1.2-.2,2.4-.7,3.5-.7,1.6-1.8,3-3.2,3.9-1.4,1-3.1,1.5-5,1.5h-102.7c-1.2,0-2.4-.2-3.5-.7-1.6-.7-3-1.8-3.9-3.2-1-1.4-1.5-3.1-1.5-5v-70.9c0-1.2.2-2.4.7-3.5.7-1.6,1.8-3,3.2-3.9,1.4-1,3.1-1.5,5-1.5h5.2s0,0,0,0h97.4c1.2,0,2.4.2,3.4.7,1.6.7,3,1.8,3.9,3.2,1,1.4,1.5,3.1,1.5,5h0ZM132.1,330.1c1.7-4,4.5-7.3,8-9.7,3.5-2.4,7.7-3.8,12.3-3.8h34.9c3.1,0,5.9.6,8.6,1.7,4,1.7,7.3,4.5,9.7,8,2.4,3.5,3.8,7.7,3.8,12.3v19.6h-79.1v-19.6c0-3.1.6-5.9,1.7-8.6h0ZM220.9,324.5c-2.8-6.5-7.4-12.1-13.2-16-5.8-3.9-12.8-6.2-20.3-6.2h-34.9c-5,0-9.8,1-14.2,2.9-6.5,2.8-12.1,7.4-16,13.2-3.9,5.8-6.2,12.8-6.2,20.3v19.7c-2.5.2-4.9.8-7.1,1.7-4.2,1.8-7.7,4.7-10.2,8.4-2.5,3.7-4,8.2-4,13v70.9c0,3.2.6,6.2,1.8,9,1.8,4.2,4.7,7.7,8.4,10.2,3.7,2.5,8.2,4,13,4h102.7c3.2,0,6.2-.6,9-1.8,4.2-1.8,7.7-4.7,10.2-8.4,2.5-3.7,4-8.2,4-13v-70.9c0-3.2-.6-6.2-1.8-9-1.8-4.2-4.7-7.7-8.4-10.2-2.9-2-6.3-3.3-9.9-3.7v-19.8c0-5-1-9.8-2.9-14.2h0Z"/>
        <path class="cls-1" d="M383.6,195.5h-247.7c-3.9,0-7.1,3.2-7.1,7.1s3.2,7.1,7.1,7.1h247.7c3.9,0,7.1-3.2,7.1-7.1s-3.2-7.1-7.1-7.1h0Z"/>
        <path class="cls-1" d="M390.8,255.2c0-3.9-3.2-7.1-7.1-7.1h-247.7c-3.9,0-7.1,3.2-7.1,7.1s3.2,7.1,7.1,7.1h247.7c3.9,0,7.1-3.2,7.1-7.1h0Z"/>
        <path class="cls-1" d="M259.6,121.3c5.3,0,7.9-2.9,7.9-8.8v-46.9c0-5.3-2.7-8-8-8s-7.9,2.7-7.9,8v46.9c0,5.8,2.7,8.8,8,8.8h0Z"/>
        <path class="cls-1" d="M259.8,143.7c2.3,0,4.4-.9,6.3-2.7,1.9-1.8,2.8-4.1,2.8-6.9s-.9-4.7-2.8-6.5c-1.8-1.8-4-2.8-6.4-2.8s-4.8.9-6.5,2.8c-1.7,1.8-2.6,4-2.6,6.5s.9,5.1,2.6,6.9c1.7,1.8,3.9,2.7,6.5,2.7h0Z"/>
        <path class="cls-1" d="M443.4,305.9c-3.9,0-7.1,3.2-7.1,7.1s3.2,7.1,7.1,7.1,7.1-3.2,7.1-7.1-3.2-7.1-7.1-7.1h0Z"/>
      </g>
    </g>
  </g>
</svg>