<?xml version="1.0" encoding="UTF-8"?>
<svg id="Layer_1" data-name="Layer 1" xmlns="http://www.w3.org/2000/svg" version="1.1" viewBox="0 0 512 512">
  <defs>
    <style>
      .cls-1 {
        fill: #20150b;
        stroke-width: 0px;
      }
    </style>
  </defs>
  <g id="NewGroup1-5">
    <g>
      <path class="cls-1" d="M339.2,488.7H89.7c-2.4,0-4.8-.6-6.9-1.6-5-2.5-9.2-6.5-11.7-11.4h0c-2.2-4.2-3.8-8.6-4.8-13.1-1-4.5-1.4-8.9-1.4-13.1,0-5.3.7-10.2,1.7-14,1.7-6.3,5.4-11.6,10.3-15.4,4.9-3.8,11-6,17.6-6h232.6c-.4.5-.7.8-1.1,1.2-2.3,2.5-4.2,5.6-5.7,9.4-1.5,3.8-2.4,8.3-2.9,13.6v.2h0s0,.1,0,.4h0c-.1,1.4-.2,2.8-.2,4.2,0,17.7,8.1,34.5,21.9,45.6h0ZM94.3,414.2h0s0,0,0,0h0ZM94.3,414.2h0ZM310.1,363.7c-3-1.3-5.5-3.4-7.3-6-1.8-2.7-2.8-5.8-2.8-9.3v-68.6c0-2.1.4-4.2,1.1-6,1.1-2.8,2.9-5.2,5.3-7,2.3-1.8,5-2.9,7.9-3.3l93.5.2c3.7.7,7,2.7,9.4,5.5,1.2,1.4,2.2,3.1,2.9,4.9.7,1.8,1,3.8,1,5.8v68.6c0,2.3-.5,4.5-1.3,6.4-1.3,3-3.4,5.5-6,7.3-2.7,1.8-5.8,2.8-9.2,2.8h-88c-2.3,0-4.5-.5-6.4-1.3h0ZM322.4,220.4c1.6-3.7,4.2-6.8,7.5-9.1,3.3-2.2,7.2-3.5,11.5-3.5h39.8c2.8,0,5.5.6,8,1.6,3.7,1.6,6.8,4.2,9.1,7.5,2.2,3.3,3.5,7.2,3.5,11.5v21.3h-80.9v-21.3c0-2.8.6-5.5,1.6-8h0ZM405.9,44.9c4.8-8.2,11.6-15.1,20.1-19.8h0c.8-.5,1.6-.9,2.2-1.2,3.6,1.6,6.4,3.6,8.6,5.9,2.1,2.1,3.7,4.5,5.1,7.3,2,4.1,3.3,8.9,4.1,14,.8,5.1,1,10.6,1,16,0,2.4,0,4.8-.1,7.2v.2s0,16.9,0,16.9h-48.5v-19c0-9.8,2.6-19.2,7.4-27.4h0ZM419.4,13h0s0,0,0,0c0,0,0,0,0,0h0ZM84.8,401.5c-6,1.4-11.6,4-16.4,7.7-7.3,5.6-12.8,13.5-15.3,22.8-1.4,5.1-2.2,11-2.2,17.6,0,5.1.5,10.6,1.7,16.1,1.2,5.5,3.2,11.1,6,16.6h0c4,7.5,10.2,13.5,17.7,17.3h0c4.1,2,8.6,3.1,13.1,3.1h264.9c.9,0,1.9-.1,3-.5.3,0,.5-.2.8-.3.7-.2,1.4-.4,2.2-.6.5,0,.9-.2,1.3-.4,1-.3,2-.6,3-1,2.5-.9,5.3-2,8-3.3,1.4-.7,2.7-1.4,4-2.3,1.3-.8,2.6-1.8,3.7-2.9l.3-.3c0,0,.2-.2.3-.3.2-.2.4-.3.6-.5h0c5.4-4.4,9.6-10,12.4-16.1,2.8-6.1,4.3-12.9,4.3-19.8v-75.5h6c4.2,0,8.2-.8,11.8-2.4,5.5-2.3,10.1-6.1,13.4-11,3.3-4.8,5.2-10.7,5.2-17v-68.6c0-3.7-.7-7.3-1.9-10.7-1.9-5-5-9.3-9-12.7-2.5-2.1-5.4-3.8-8.5-5v-23c0-4.7-1-9.3-2.7-13.4-2.6-6.2-7-11.4-12.4-15.1-.6-.4-1.1-.7-1.7-1.1v-93.8h55.4c1.8,0,3.6-.7,4.9-2,1.3-1.3,2-3.1,2-4.9v-23.7c0-2.4.1-4.9.1-7.4,0-5.1-.2-10.6-.9-16-.5-4.1-1.3-8.2-2.6-12.2-.9-3-2.1-6-3.6-8.9-2.3-4.3-5.3-8.3-9.2-11.8-3.9-3.4-8.6-6.2-14.1-8.2,0,0,0,0-.1,0,0,0,0,0,0,0-.1,0-.2,0-.3-.1,0,0-.2,0-.3,0-.1,0-.3,0-.4-.1,0,0-.1,0-.2,0-.1,0-.3,0-.4,0,0,0-.1,0-.2,0-.1,0-.3,0-.4,0,0,0,0,0,0,0,0,0-265.7,0-295.4,0-4.2,0-8.2.8-11.8,2.1-2.7,1-5.3,2.3-7.6,3.8-3.5,2.3-6.6,5-9.3,8-2.7,3-5,6.2-7.1,9.4-8.1,12.9-12.2,27.9-12.2,43v213.6c0,3.8,3.1,6.9,6.9,6.9s6.9-3.1,6.9-6.9V75.7c0-12.6,3.4-25,10.1-35.6,1.5-2.4,3.1-4.6,4.9-6.7,2.7-3.1,5.6-5.7,8.8-7.4,1.6-.9,3.2-1.6,4.9-2,1.7-.5,3.5-.7,5.4-.7h272.7c-4.5,4.3-8.4,9.3-11.5,14.6-6,10.3-9.2,22.1-9.2,34.3v122c-1.2-.1-2.5-.2-3.7-.2h-39.8c-4.7,0-9.3,1-13.4,2.7-6.2,2.6-11.4,7-15.1,12.4-3.7,5.5-5.9,12.1-5.9,19.2v22.6c-1.5.5-3,1.1-4.5,1.9-4.8,2.5-8.9,6.3-11.7,11-2.9,4.6-4.5,10.1-4.5,15.9v68.6c0,4.2.8,8.2,2.4,11.8,2.3,5.5,6.2,10.1,11,13.4,4.8,3.3,10.7,5.2,17,5.2h68.2v75.5c0,4.9-1.1,9.7-3,14-2,4.3-4.9,8.2-8.6,11.2h0c-.3.2-.6.5-.9.7-.4.3-.7.6-1.1,1,0,0,0,.1-.1.2-.4.3-.9.7-1.6,1.2-1.3.8-3.1,1.7-4.9,2.5-1.4.6-2.8,1.1-4.2,1.6-3.4-2.3-7-4.8-10.2-7.1-11.9-8.4-18.9-22.1-18.9-36.4,0-1.1,0-2.2.1-3.3h0c0-.1,0-.2,0-.4.3-3.8.9-6.7,1.7-9,.6-1.7,1.2-3,1.9-4.1,1-1.6,2-2.5,3-3.2,1-.7,2-1.1,3-1.4h0c2.1-.6,3.9-1.7,5.3-3.3.7-.8,1.3-1.7,1.8-2.7.5-1,.8-2.1.9-3.3h0c0-.4,0-.9,0-1.3,0-1.5-.3-2.9-.9-4.2-.8-2-2.2-3.6-3.9-4.8-1.7-1.2-3.8-1.9-6.1-1.9h0H98.6v-34c0-3.8-3.1-6.9-6.9-6.9s-6.9,3.1-6.9,6.9v35h0Z"/>
      <polygon class="cls-1" points="338.3 332.6 338.3 332.6 338.3 332.6 338.3 332.6 338.3 332.6"/>
      <path class="cls-1" d="M370.2,338c-.3.5-.6,1-1.1,1.5-.8.8-1.9,1.5-3.2,2-1.3.5-2.9.8-4.7.8-3.1,0-5.7-1-7.3-2.3-.8-.7-1.4-1.4-1.7-2-.3-.6-.5-1.2-.5-1.8,0-.2,0-.5,0-.8h0s5.5-26.2,5.5-26.2c.6-3-.8-6.1-3.5-7.5-1.8-.9-3.1-2.1-3.9-3.3-.4-.6-.7-1.2-.9-1.8-.2-.6-.3-1.2-.3-1.8,0-1,.2-1.9.7-2.8.4-.7.9-1.4,1.6-2.1,1.1-1,2.5-2,4.3-2.6,1.7-.7,3.8-1.1,6-1.1s3.8.3,5.4.9c2.4.8,4.3,2.1,5.5,3.5.6.7,1,1.4,1.3,2.1.3.7.4,1.4.4,2.1,0,.6,0,1.2-.3,1.8-.3.9-.8,1.8-1.6,2.7-.8.9-1.9,1.7-3.2,2.4-2.7,1.4-4.2,4.5-3.5,7.5l5.5,26.1c0,.3,0,.6,0,.8,0,.6-.1,1.2-.5,1.8h0ZM381,280c-2.5-2.4-5.5-4.3-8.9-5.6-3.4-1.3-7.1-2-10.9-2-3.4,0-6.7.6-9.8,1.6-4.6,1.5-8.6,4.2-11.6,7.7-1.5,1.8-2.7,3.8-3.6,6-.9,2.2-1.3,4.6-1.3,7.1,0,2.1.3,4.1,1,6.1.9,2.9,2.5,5.5,4.5,7.6.8.9,1.6,1.6,2.5,2.4l-4.5,21.7c-.2,1.2-.4,2.4-.4,3.6,0,2.9.8,5.8,2.1,8.2,1,1.8,2.2,3.5,3.7,4.9,2.2,2.2,4.9,3.8,7.8,5,3,1.2,6.2,1.8,9.7,1.8,6.1,0,11.7-2,16-5.4,2.1-1.7,3.9-3.8,5.2-6.3,1.3-2.5,2.1-5.3,2.1-8.2,0-1.2-.1-2.4-.4-3.5h0c0,0-4.5-21.7-4.5-21.7,1.6-1.4,3.1-2.9,4.3-4.7,1.1-1.6,2-3.4,2.7-5.3.6-1.9,1-4,1-6.1,0-3.3-.9-6.5-2.3-9.3-1.1-2.1-2.5-3.9-4.2-5.6h0Z"/>
      <path class="cls-1" d="M91.7,335c3.8,0,6.9-3.1,6.9-6.9s-3.1-6.9-6.9-6.9-6.9,3.1-6.9,6.9,3.1,6.9,6.9,6.9h0Z"/>
    </g>
  </g>
  <path class="cls-1" d="M197.1,100.9c1.2-.4,2.6-.8,4.2-1.1,1.6-.3,3.3-.5,5-.5,2.1,0,4.1.3,5.9,1.1.9.4,1.7.9,2.5,1.5.8.6,1.5,1.4,2.2,2.5h0c2.9,4.3,5.2,9.4,6.8,14.7,1.6,5.3,2.4,10.7,2.4,15.7,0,4.2-.6,8.2-1.7,11.4h0c-.2.6-.3,1.1-.4,1.5,0,.5,0,.9,0,1.3,0,.6,0,1.2.1,1.8.1,1.1.3,2.3.6,3.5.5,2.1,1.2,4.5,1.9,6.8.6,1.7,1.2,3.5,1.8,5.2-.8-.2-1.6-.4-2.4-.6-.8-.2-1.7-.3-2.5-.3-2.1,0-4.2.6-5.9,1.7-1.8,1.1-3.3,2.7-4.2,4.6l-14.8,29.5c-.4.8-.9,1.4-1.6,1.8-.7.4-1.5.7-2.3.7h0c-.8,0-1.6-.2-2.3-.6-.7-.4-1.3-1-1.7-1.7l-16.2-29.7c-1-1.8-2.5-3.3-4.2-4.4-1.7-1-3.7-1.6-5.8-1.6-.9,0-1.8.1-2.8.3-.5.1-1,.3-1.5.4,1.1-2.8,2.2-5.8,3-8.7.5-1.7.9-3.3,1.2-4.9.2-.8.3-1.5.4-2.3,0-.7.1-1.5.1-2.2s0-1,0-1.5c0-.5-.2-1.1-.4-1.7h0c-1.1-3.3-1.7-7.2-1.7-11.4,0-5,.8-10.4,2.4-15.7,1.6-5.3,3.9-10.3,6.8-14.7h0c.7-1,1.4-1.8,2.2-2.5,1.2-1,2.4-1.6,3.8-2,1.4-.4,2.9-.6,4.5-.6,2.4,0,4.8.4,6.8,1,2,.5,3.7,1.2,4.5,1.6,1.1.5,2.4.5,3.6.1h0ZM233.9,148.8h0ZM242.9,189.2l5.4,38.3h0s0,0,0,0c0,0,0,.1,0,.2,0,0,0,.2-.2.2,0,0-.1,0-.2,0h-106.6c0,0-.1,0-.2,0,0,0-.1,0-.2-.2,0,0,0-.1,0-.2h0c0,0,0,0,0,0l5.4-38.3v-.2c.2-1.7.7-3.1,1.6-4.4.6-1,1.4-1.9,2.5-2.8,1.5-1.3,3.5-2.5,5.9-3.6,2.3-1,5-1.9,7.8-2.6.1,0,.2,0,.3,0,.2,0,.5,0,.7.2.2.1.4.3.5.6l16.2,29.7h0c1.3,2.3,3.1,4.2,5.3,5.5,2.2,1.3,4.7,2,7.4,2h.3c2.7,0,5.3-.8,7.4-2.2,2.2-1.4,4-3.4,5.2-5.8l14.8-29.5c.1-.3.3-.4.5-.6.2-.1.5-.2.8-.2s.2,0,.3,0h0c2.7.6,5.2,1.3,7.5,2.2,1.7.7,3.3,1.4,4.7,2.3,2.1,1.3,3.7,2.7,4.9,4.2.6.8,1,1.5,1.3,2.4.3.8.6,1.7.7,2.7v.2h0ZM146.5,171.8h0s0,0,0,0h0ZM154.8,148.4s0,0,0,0h0ZM182.2,88.3c-3.2,0-6.6.5-9.9,2-1.7.7-3.3,1.7-4.8,3-1.5,1.3-2.9,2.8-4.1,4.6-3.5,5.3-6.2,11.2-8.1,17.3-1.8,6.1-2.8,12.5-2.8,18.5,0,5.1.7,10,2.2,14.5,0,0,0,.1,0,.2,0,.4,0,1.2-.2,2.1-.3,1.7-.9,3.9-1.6,6.2-1.1,3.5-2.5,7.2-3.9,10.2-.7,1.5-1.3,2.8-1.8,3.7-.3.5-.5.8-.6,1,0,.1-.1.2-.1.2-.3.3-.5.6-.7.9-2.2,1.6-4.1,3.4-5.7,5.6-1,1.4-1.8,2.8-2.4,4.5-.6,1.6-1,3.2-1.2,5h0l-5.4,38.3c0,.5-.1,1-.1,1.5,0,1.4.3,2.8.8,4,.8,1.9,2.1,3.4,3.7,4.6,1.6,1.1,3.7,1.8,5.8,1.8h106.6c1.4,0,2.8-.3,4.1-.8,1.9-.8,3.4-2.1,4.5-3.8,1.1-1.6,1.8-3.6,1.8-5.8,0-.5,0-1-.1-1.5h0s-5.4-38.3-5.4-38.3h0c-.2-1.6-.6-3.2-1.1-4.6-1-2.7-2.5-5-4.3-6.9-1.8-1.9-3.9-3.5-6.1-4.9-.2-.4-.5-.9-.7-1.6-.6-1.4-1.4-3.2-2.1-5.2-1.1-3-2.3-6.4-3.2-9.4-.4-1.5-.8-2.9-1-4-.1-.6-.2-1.1-.3-1.5,0-.3,0-.6,0-.8,1.5-4.4,2.1-9.3,2.2-14.3,0-6.1-1-12.4-2.8-18.5-1.8-6.1-4.5-12.1-8.1-17.3h0c-1.2-1.8-2.6-3.3-4.1-4.6-2.3-1.9-4.8-3.2-7.3-3.9-2.5-.8-5-1-7.4-1-2.5,0-4.8.3-6.9.7-1.3.3-2.6.6-3.7.9-1.1-.4-2.5-.9-4.1-1.3-2.6-.7-5.9-1.3-9.4-1.3h0Z"/>
  <path class="cls-1" d="M256.6,68.2c0-.9.2-1.8.5-2.6.5-1.2,1.4-2.2,2.4-3,1.1-.7,2.3-1.1,3.7-1.1h77.6c.9,0,1.8.2,2.6.5,1.2.5,2.2,1.4,3,2.4.7,1.1,1.1,2.3,1.1,3.7v39.6c0,.9-.2,1.8-.5,2.6-.5,1.2-1.4,2.2-2.4,3-1.1.7-2.3,1.1-3.7,1.1h-41.1c-1.6,0-3,.7-4,2-2.9,3.9-6,6.9-9.3,9.3-4.9,3.6-10.2,5.8-15.4,7.2-4.7,1.2-9.2,1.7-13.1,1.7.9-1,1.7-2,2.4-3,2.8-3.9,4.5-7.8,5.3-11.4.3-1.3,0-2.7-.7-3.8-.7-1.1-1.9-1.9-3.2-2.2-1.5-.3-2.9-1.1-3.8-2.3-.5-.6-.9-1.2-1.1-2-.3-.7-.4-1.5-.4-2.3v-39.6h0ZM242.9,134.4c-1.7,1.1-2.6,3.1-2.2,5,.3,2,1.8,3.5,3.8,4,.3,0,5.2,1.2,12.6,1.2,6.3,0,14.4-.8,22.8-4,4.2-1.6,8.4-3.8,12.5-6.8,3.5-2.5,6.8-5.7,9.9-9.4h38.7c2.3,0,4.5-.5,6.5-1.3,3-1.3,5.5-3.4,7.3-6,1.8-2.7,2.8-5.9,2.8-9.3v-39.6c0-2.3-.5-4.5-1.3-6.5-1.3-3-3.4-5.5-6-7.3-2.7-1.8-5.9-2.8-9.3-2.8h-77.6c-2.3,0-4.5.5-6.5,1.3-3,1.3-5.5,3.4-7.3,6-1.8,2.7-2.8,5.9-2.8,9.3v39.6c0,2,.4,3.9,1,5.7,1,2.7,2.6,5,4.7,6.9.7.6,1.5,1.2,2.3,1.7-.6,1.2-1.3,2.5-2.3,3.8-2,2.8-5,5.7-9.5,8.6h0Z"/>
  <path class="cls-1" d="M197,124c1.6,3.8,4,7.1,6.7,9.9,1.4,1.4,2.9,2.7,4.4,3.8.5.3,1,.7,1.5,1-.4,4.5-1.6,8.7-3.4,12-1.1,2-2.3,3.6-3.7,4.9-1.4,1.3-2.8,2.3-4.2,2.9-1.3.5-2.5.8-3.8.8-1.7,0-3.4-.4-5-1.3h0c-1.3-.7-2.7-1.8-3.9-3.1-1.8-2-3.5-4.7-4.6-8-1.1-3.1-1.8-6.8-1.8-10.6,2.8-1,5.4-2.4,7.8-4,3.9-2.5,7.3-5.5,10.1-8.2h0ZM181.3,124.1c-2.6,1.7-5.4,2.9-8,3.5-2.1.5-3.6,2.3-3.8,4.4-.1,1.3-.2,2.6-.2,4,0,6.7,1.5,13,4.1,18.3,1.3,2.6,2.9,5.1,4.8,7.1,1.9,2.1,4.1,3.9,6.5,5.2l2.4-4.4-2.4,4.4c2.9,1.6,6.3,2.5,9.7,2.5,2.7,0,5.3-.6,7.6-1.5h0c2.7-1.1,5.2-2.8,7.4-4.9,3.2-3.1,5.7-7.1,7.5-11.7,1.7-4.5,2.7-9.6,2.7-15,0-.1,0-.2,0-.3h0c0-2.1-1.3-3.9-3.2-4.7-.9-.4-2.3-1.1-3.6-2.2-2-1.6-4.1-3.9-5.5-6.4-.7-1.2-1.3-2.5-1.7-3.8-.4-1.2-.6-2.5-.6-3.6,0-.5,0-.9.1-1.4.4-2.3-.9-4.5-3-5.4-2.1-.9-4.6-.2-5.9,1.7h0s0,0,0,0c-.3.4-3.3,4.3-7.6,8.4-2.2,2-4.7,4.1-7.3,5.7h0Z"/>
  <path class="cls-1" d="M278,82.9h49.2c2.7,0,5-2.2,5-5s-2.2-5-5-5h-49.2c-2.7,0-5,2.2-5,5s2.2,5,5,5h0Z"/>
  <path class="cls-1" d="M278,100.7h49.2c2.7,0,5-2.2,5-5s-2.2-5-5-5h-49.2c-2.7,0-5,2.2-5,5s2.2,5,5,5h0Z"/>
</svg>