<?xml version="1.0" encoding="UTF-8"?>
<svg id="Layer_1" data-name="Layer 1" xmlns="http://www.w3.org/2000/svg" version="1.1" viewBox="0 0 512 512">
  <defs>
    <style>
      .cls-1 {
        fill: #20150b;
        stroke-width: 0px;
      }
    </style>
  </defs>
  <g id="NewGroup1-15">
    <g>
      <path class="cls-1" d="M370.3,197.2c-.7,1.2-1.7,2.3-2.9,3.1-2.3,1.5-3.5,4.2-3,6.9l4.4,26.3c0,.4,0,.8,0,1.1,0,.8-.2,1.6-.5,2.4-.5,1.1-1.3,2.1-2.3,2.8-1,.7-2.2,1.1-3.5,1.1-.9,0-1.7-.2-2.5-.5-1.1-.5-2.1-1.3-2.7-2.3-.7-1-1.1-2.2-1.1-3.4,0-.3,0-.7,0-1l4.4-26.3c.4-2.7-.7-5.4-3-6.9-1.2-.8-2.2-1.9-2.9-3.1-.7-1.2-1.1-2.6-1.1-4.2,0-1.2.2-2.4.7-3.4.7-1.6,1.8-2.9,3.2-3.8,1.4-.9,3-1.5,4.9-1.5,1.2,0,2.4.2,3.4.7,1.6.7,2.9,1.8,3.8,3.2.9,1.4,1.5,3,1.5,4.9,0,1.5-.4,2.9-1.1,4.2h0ZM385.2,193.1c0-3.1-.6-6.1-1.8-8.8-1.7-4.1-4.6-7.5-8.1-9.9-3.6-2.4-8-3.9-12.6-3.9-3.1,0-6.1.6-8.8,1.8-4,1.7-7.5,4.6-9.9,8.2-2.4,3.6-3.9,8-3.8,12.6,0,3.9,1,7.6,2.8,10.8,1,1.8,2.3,3.5,3.7,4.9l-3.7,22.5c-.2,1.1-.3,2.2-.3,3.3,0,2.7.6,5.3,1.6,7.7,1.5,3.6,4,6.6,7.2,8.8,3.2,2.2,7.1,3.5,11.3,3.5,2.8,0,5.5-.6,7.9-1.6,3.6-1.6,6.7-4.1,8.8-7.3,2.1-3.2,3.4-7,3.4-11.1,0-1.1-.1-2.2-.3-3.3h0c0,0-3.7-22.5-3.7-22.5,1.4-1.5,2.7-3.1,3.7-4.9,1.8-3.2,2.8-6.9,2.8-10.9h0Z"/>
      <path class="cls-1" d="M276,303c-2.9,1.1-5.9,2.2-9.2,3.3-6.7,2.2-14.3,4.1-22.5,5.9,0,0,0,0-.1,0-11.7,2.4-24.7,4.4-38.6,5.7-3.4.3-6.9.6-10.4.8h0c-10.1.7-20.6,1.1-31.4,1.1-18.6,0-36.4-1.1-52.7-3.1-11.4-1.4-22.1-3.2-31.8-5.4-9.7-2.2-18.3-4.7-25.7-7.5h0c-4.7-1.8-8.9-3.7-12.5-5.6-2.7-1.4-5-2.9-7-4.4-2.9-2.2-5-4.3-6.2-6.2-.6-.9-1-1.8-1.3-2.6-.3-.8-.4-1.5-.4-2.2v-49.2c5.8,4.2,13.1,7.9,21.6,11.2,13.9,5.3,31.1,9.6,50.8,12.5,19.7,2.9,41.7,4.6,65,4.6,29.9,0,57.7-2.7,81.1-7.4,7.2,15.6,16.1,29.6,25.8,41.9,1.8,2.2,3.6,4.4,5.4,6.5h0ZM301.1,328.5v26c0,.3,0,.6-.2,1.1-.2.7-.8,1.6-1.7,2.7-1,1.1-2.4,2.4-4.2,3.7,0,0,0,0,0,0-2.7,2-6.2,4-10.4,6-6.3,3-14.1,5.9-22.6,8.5-4.1,1.3-8.4,2.5-12.7,3.6,0-1.7-.4-3.4-1.3-5h0c-.2-.4-.3-.6-.3-.6v-.2c-.1,0-17.6-28-17.6-28h0c-.6-1-.9-2.2-.9-3.3,0-1,.2-1.9.7-2.8.4-.9,1-1.6,1.9-2.2h0s17.1-12.6,17.1-12.6c8.1-1.7,15.6-3.7,22.4-5.9,5.3-1.7,10.3-3.6,14.8-5.6,5.1,5.3,10.2,10.1,15.3,14.6h0ZM300.7,428.3c-.3.8-.7,1.6-1.2,2.5-1.1,1.7-2.9,3.6-5.4,5.6-4.4,3.5-11.1,7-19.5,10.2-12.6,4.8-29,8.9-47.9,11.7-18.9,2.8-40.3,4.4-63,4.4-19.6,0-38.3-1.2-55.2-3.4-12.7-1.6-24.3-3.8-34.6-6.4-7.7-1.9-14.7-4.1-20.8-6.5-4.5-1.8-8.6-3.6-12-5.5-2.6-1.4-4.8-2.9-6.7-4.3-2.8-2.1-4.8-4.2-5.9-6.1-.6-.9-1-1.7-1.2-2.5-.2-.8-.3-1.5-.3-2.2v-49.2c4,2.9,8.7,5.6,14.1,8.1,6.5,3,13.9,5.6,22.1,8,.2,0,.5.1.7.2,3.3,4.6,7,8.9,11,12.9.9.9,2.1,1.6,3.4,1.8,1.7.4,3.6.8,5.3,1.2,1.2.3,2.6.2,3.8-.2l19.4-6.7h0l9.8-3.4c.7-.2,1.4-.3,2-.3,1.2,0,2.4.4,3.4,1,1,.7,1.8,1.6,2.3,2.7l13.2,30.2v.3c.1,0,.2,0,.2,0h0c.8,1.7,2,3,3.5,4,1.5,1,3.2,1.6,5,1.7h0c2.3.1,4.7.2,7,.2,4.4,0,8.8-.3,13.1-.8h0c1.8-.2,3.5-.9,5-2,1.4-1,2.5-2.5,3.2-4.2h0c0,0,0-.1.1-.2v-.3c.1,0,11.1-31.1,11.1-31.1h0c.5-1.3,1.3-2.3,2.3-3,1-.7,2.3-1.1,3.6-1.1.5,0,1.1,0,1.6.2h0s31.9,8.5,31.9,8.5h.2c0,0,.3.1.6.2h.2c.7.2,1.4.3,2.1.3,1.4,0,2.8-.3,4.1-.8,1.3-.6,2.5-1.4,3.5-2.6,1.4-1.6,2.8-3.2,4.1-4.9,12.2-2.7,24.1-5.9,34.7-9.6,5.7-2,10.9-4.1,15.7-6.4,3.9-1.9,7.5-3.8,10.7-6v51.5c0,.7-.1,1.5-.4,2.3h0ZM44,321.1c.5,1,1.1,2.2,1.6,3.3.6,1.1,1.4,2.1,2.5,2.8l26.2,16.6h0c1,.6,1.7,1.4,2.2,2.3.5.9.8,2,.8,3,0,1-.2,2-.7,2.9h0s-13.9,26.3-13.9,26.3c-5-1.6-9.5-3.2-13.6-5-3.9-1.7-7.3-3.4-10.2-5.2-2.2-1.3-4.1-2.7-5.6-4-2.4-2-4-3.8-4.9-5.5-.5-.8-.8-1.6-1-2.2-.2-.7-.3-1.3-.3-2h0c0,0-.4-49-.4-49,1.3.9,2.7,1.8,4.1,2.7,3.8,2.3,8.1,4.5,12.8,6.5-.1.9-.2,1.7-.3,2.6-.1,1.3.1,2.6.7,3.8h0ZM106.7,349.9c3.8,9,10.1,16.6,18.1,22,8,5.4,17.6,8.5,27.9,8.5,6.9,0,13.5-1.4,19.5-3.9,9-3.8,16.6-10.1,22-18.1,5.1-7.6,8.2-16.7,8.5-26.5,1.4-.1,2.7-.2,4.1-.4h0c4.4-.4,8.8-.9,13-1.4-1,1.2-1.9,2.6-2.6,3.9-1.4,2.8-2.1,5.8-2.1,8.9,0,3.6,1,7.3,3,10.6h0s16.5,26.5,16.5,26.5c-1.3,2-2.7,4-4.2,6h0c-1.1,1.5-2.3,3-3.5,4.4l-30.2-8c-1.7-.5-3.5-.7-5.2-.7-4.2,0-8.2,1.3-11.5,3.6-3.3,2.3-6,5.7-7.4,9.8h0s-10.3,29.1-10.3,29.1c-3,.3-6.1.4-9.3.5-1.3,0-2.7,0-4,0l-12.3-28.2h0c-1.6-3.7-4.3-6.8-7.5-8.8-3.2-2.1-7-3.2-10.9-3.2-2.2,0-4.4.4-6.5,1.1h0s-9.8,3.4-9.8,3.4h0s-17.6,6.1-17.6,6.1c-.4,0-.9-.2-1.3-.3-2.9-3.1-5.6-6.3-8.1-9.7,0-.3,0-.6,0-.9l13.6-25.8h0c1.6-3,2.3-6.2,2.3-9.3,0-3.3-.8-6.6-2.4-9.5-1.6-2.9-3.9-5.5-6.9-7.4h0s-15.3-9.7-15.3-9.7c3.2.8,6.4,1.7,9.8,2.4,8.3,1.9,17.1,3.4,26.5,4.7,0,.3,0,.6,0,.9,0,6.9,1.4,13.5,3.9,19.5h0ZM188.8,332.9c-.3,4.1-1.2,8-2.8,11.7-2.7,6.5-7.3,12-13.1,15.9-5.8,3.9-12.7,6.2-20.2,6.2-5,0-9.8-1-14.1-2.8-6.5-2.7-12-7.3-15.9-13.1-3.8-5.6-6-12.3-6.2-19.5,14.8,1.5,30.7,2.4,47.1,2.4s17-.2,25.1-.7h0ZM26.7,136.3c.3-.8.7-1.6,1.2-2.5,1.1-1.7,2.9-3.6,5.4-5.6,4.4-3.5,11.1-7,19.5-10.2,12.6-4.8,29-8.9,47.9-11.7,18.9-2.8,40.3-4.4,63-4.4s33.8.9,49.1,2.6c7.1.8,13.9,1.8,20.4,2.9-.1,0-.3.2-.4.2-1.8,1.2-3,2.8-3.9,4.6-.9,1.8-1.3,3.7-1.3,5.7v52.9c-19.1,2.9-40.9,4.6-63.9,4.6-11.4,0-22.5-.4-33.1-1.2-3.8-.3-7.1,2.6-7.4,6.4-.3,3.8,2.6,7.1,6.4,7.4h0c11,.8,22.4,1.2,34.1,1.2,23,0,44.7-1.6,64.1-4.5,1,20.8,5.2,39.8,11.6,57-21.8,4.2-47.8,6.6-75.7,6.6-19.6,0-38.3-1.2-55.3-3.4-12.7-1.6-24.4-3.8-34.8-6.4-7.8-1.9-14.8-4.1-20.9-6.5-4.6-1.8-8.6-3.6-12.1-5.5-2.6-1.4-4.9-2.9-6.7-4.3-2.8-2.1-4.8-4.2-6-6.1-.6-.9-1-1.7-1.2-2.5-.2-.8-.3-1.5-.3-2.2v-50.6c3.6,2.6,7.8,5.1,12.5,7.3,6.1,2.9,13.1,5.5,20.9,7.9,3.6,1.1,7.5-1,8.6-4.6,1.1-3.6-1-7.5-4.6-8.6-6.3-1.9-11.9-4-16.8-6.2-3.6-1.6-6.9-3.3-9.6-5-2-1.3-3.8-2.6-5.2-3.8-2.2-1.9-3.7-3.7-4.6-5.2-.4-.8-.7-1.5-.9-2.2-.2-.7-.3-1.3-.3-1.9,0-.7.1-1.5.4-2.3h0ZM494.3,107.5c-1.2-.8-2.6-1.4-4.1-1.7-8.2-1.6-29.8-6.4-53.2-16.6-11.7-5.1-23.8-11.5-34.9-19.5-11.1-8-21.1-17.5-28.8-28.7h0c0,0,0-.2,0-.2-1.1-1.6-2.5-2.9-4.2-3.9-1.7-.9-3.6-1.5-5.6-1.5-2,0-4,.6-5.8,1.6-1.7,1-3.1,2.3-4.1,3.9h0c-7.7,11.2-17.7,20.7-28.8,28.7-16.6,12-35.5,20.5-51.9,26.2-4.4,1.5-8.6,2.9-12.5,4.1-.8-.8-1.8-1.3-3-1.6-12.9-3.2-27.4-5.8-43.2-7.6-15.8-1.8-32.8-2.7-50.6-2.7-20.2,0-39.5,1.2-57,3.5-13.2,1.7-25.4,3.9-36.4,6.7-8.2,2.1-15.8,4.4-22.5,7-5.1,2-9.7,4-13.8,6.3-3.1,1.7-5.9,3.5-8.4,5.4-3.8,2.9-6.9,6-9.2,9.6-1.2,1.8-2.1,3.7-2.7,5.8-.6,2-1,4.2-1,6.3v72.9h0v71.5c0,1.2.1,2.4.3,3.6,0,.4-.1.9-.1,1.4h0l.5,66.6v71.5c0,2.3.4,4.5,1.1,6.6.7,2,1.6,3.9,2.7,5.6,2.2,3.3,5,6.2,8.4,8.9,6,4.7,13.7,8.7,22.8,12.3,13.8,5.3,30.9,9.6,50.5,12.5,19.6,3,41.6,4.6,64.9,4.6,20.2,0,39.5-1.2,57-3.5,13.2-1.7,25.4-3.9,36.4-6.7,8.2-2.1,15.8-4.4,22.5-7,5.1-2,9.7-4,13.8-6.3,3.1-1.7,5.9-3.5,8.4-5.4,3.8-2.9,6.9-6,9.2-9.6,1.2-1.8,2.1-3.7,2.7-5.8.6-2,1-4.2,1-6.3v-86.1c1.3,1,2.6,2,3.8,2.9,15.5,11.6,29.2,19.4,37.6,23.7,1.6.8,3,1.5,4.2,2.1,1.9.9,4.2.9,6.1,0,1.2-.6,2.6-1.3,4.2-2.1h0c8.9-4.6,23.9-13.2,40.6-26,3-2.3,3.6-6.6,1.3-9.7s-6.6-3.6-9.7-1.3c-15.9,12.2-30.2,20.4-38.6,24.7h0c-.3.2-.6.3-.9.5-.3-.1-.6-.3-.9-.4h0c-7-3.6-18.1-9.9-30.9-19-19.1-13.6-41.8-33.6-59.6-60-8.9-13.2-16.6-28.1-22.1-44.7-5.5-16.6-8.7-34.9-8.7-55v-56.7c9.9-2,31-7,54.2-17.2,12.4-5.4,25.3-12.3,37.4-21,11.4-8.2,22-18.1,30.6-30,8.6,11.9,19.2,21.7,30.6,30,18.1,13.1,38.2,22,55.3,28,15.7,5.5,29,8.6,36.2,10.1v56.7c0,20.7-3.4,39.5-9.2,56.4-5.7,16.9-13.8,32.1-23.1,45.5-2.2,3.1-1.4,7.4,1.7,9.6,3.1,2.2,7.4,1.4,9.6-1.7h0c9.9-14.3,18.6-30.6,24.8-48.9,6.2-18.3,9.9-38.6,9.9-60.9v-57.8c0-2.7-.8-5.3-2.3-7.4-.8-1.1-1.7-2.1-2.9-2.9h0Z"/>
      <path class="cls-1" d="M416.7,163c1.2,1.4,2.1,2.9,2.7,4.6.6,1.7,1,3.5,1,5.5v75.3c0,2.2-.4,4.2-1.2,6.1-1.2,2.8-3.2,5.2-5.6,6.8-2.5,1.7-5.4,2.6-8.7,2.6h-84.2c-2.2,0-4.2-.4-6-1.2-2.8-1.2-5.2-3.2-6.8-5.6-1.7-2.5-2.6-5.4-2.7-8.7v-75.3c0-2,.4-3.9,1.1-5.6,1-2.6,2.7-4.9,4.9-6.6,2.1-1.6,4.6-2.7,7.4-3.1l89.4.2c3.5.7,6.5,2.5,8.8,5.2h0ZM326.5,126c1.5-3.5,3.9-6.5,7-8.5,3.1-2.1,6.8-3.3,10.8-3.3h38c2.7,0,5.2.5,7.5,1.5,3.5,1.5,6.5,3.9,8.5,7,2.1,3.1,3.3,6.8,3.3,10.8v10.5h-76.8v-10.5c0-2.7.5-5.2,1.5-7.5h0ZM413,120.6c-2.5-6-6.7-11-12-14.6-5.3-3.6-11.7-5.7-18.5-5.7h-38c-4.6,0-8.9.9-12.9,2.6-6,2.5-11,6.7-14.6,12-3.6,5.3-5.7,11.7-5.7,18.6v11.8c-1.4.5-2.8,1.1-4.1,1.8-4.7,2.5-8.6,6.1-11.3,10.6-2.8,4.5-4.4,9.8-4.4,15.4v75.3c0,4,.8,7.9,2.3,11.4,2.2,5.3,5.9,9.7,10.6,12.9,4.7,3.2,10.4,5,16.4,5h84.2c4,0,7.9-.8,11.4-2.3,5.3-2.2,9.7-5.9,12.9-10.6,3.2-4.7,5-10.4,5-16.4v-75.3c0-3.6-.7-7.1-1.9-10.3-1.8-4.8-4.8-9-8.7-12.2-2.4-2-5.1-3.6-8.1-4.8v-12.2c0-4.6-.9-8.9-2.6-12.9h0Z"/>
      <polygon class="cls-1" points="356.3 366.5 356.3 366.5 356.3 366.5 356.3 366.5 356.3 366.5"/>
      <polygon class="cls-1" points="235.9 401.3 235.9 401.3 235.9 401.3 235.9 401.3 235.9 401.3"/>
      <polygon class="cls-1" points="196.9 382.5 196.9 382.5 196.9 382.5 196.9 382.5 196.9 382.5"/>
      <path class="cls-1" d="M430.6,310.3c0,3.8,3.1,6.9,6.9,6.9s6.9-3.1,6.9-6.9-3.1-6.9-6.9-6.9-6.9,3.1-6.9,6.9h0Z"/>
      <path class="cls-1" d="M98.4,184.3c3.8,0,6.9-3.1,6.9-6.9s-3.1-6.9-6.9-6.9-6.9,3.1-6.9,6.9,3.1,6.9,6.9,6.9h0Z"/>
    </g>
  </g>
</svg>